<svg width="27" height="27" viewBox="0 0 27 27" fill="none" xmlns="http://www.w3.org/2000/svg">
<rect x="0.625" width="26" height="27" rx="13" fill="#1D7E96"/>
<path d="M9.59975 12.1147C10.2043 12.1147 10.7495 11.7617 11.123 11.2597C11.7052 10.4757 12.436 9.82856 13.2688 9.35975C13.811 9.05575 14.2813 8.60291 14.5085 8.00204C14.6681 7.58107 14.7501 7.1318 14.75 6.67837V6.17725C14.75 6.01977 14.8093 5.86875 14.9148 5.7574C15.0202 5.64605 15.1633 5.5835 15.3125 5.5835C15.7601 5.5835 16.1893 5.77116 16.5057 6.10521C16.8222 6.43926 17 6.89233 17 7.36475C17 8.27675 16.805 9.14045 16.4578 9.91233C16.2583 10.3541 16.538 10.9272 17.0015 10.9272M17.0015 10.9272H19.346C20.1155 10.9272 20.8048 11.4767 20.8865 12.285C20.9203 12.619 20.9375 12.9579 20.9375 13.3022C20.9406 15.4685 20.2393 17.5703 18.9508 19.2564C18.6598 19.638 18.2105 19.8335 17.747 19.8335H14.735C14.3728 19.8335 14.012 19.7717 13.6678 19.6514L11.3323 18.8281C10.9881 18.7073 10.6277 18.6458 10.265 18.646H9.053M17.0015 10.9272H15.3125M9.053 18.646C9.11525 18.8083 9.18275 18.9666 9.2555 19.1226C9.40325 19.4392 9.197 19.8335 8.86325 19.8335H8.18225C7.5155 19.8335 6.8975 19.4234 6.70325 18.7505C6.44349 17.8506 6.3118 16.9149 6.3125 15.9741C6.3125 14.7447 6.53375 13.5706 6.93575 12.4924C7.16525 11.8796 7.75025 11.521 8.375 11.521H9.16475C9.51875 11.521 9.7235 11.9612 9.53975 12.281C8.89917 13.394 8.56132 14.6718 8.56325 15.9741C8.56325 16.9194 8.73725 17.8211 9.05375 18.646H9.053Z" stroke="white" stroke-width="1.2" stroke-linecap="round" stroke-linejoin="round"/>
</svg>
