<svg width="60" height="60" viewBox="0 0 60 60" fill="none" xmlns="http://www.w3.org/2000/svg">
<path d="M23.6212 41.3867L21.25 49.6875L18.8788 41.3867C18.2659 39.2425 17.1168 37.2899 15.5399 35.713C13.9631 34.1361 12.0104 32.987 9.86625 32.3742L1.5625 30L9.86333 27.6288C12.0075 27.0159 13.9601 25.8668 15.537 24.2899C17.1139 22.7131 18.263 20.7604 18.8758 18.6163L21.25 10.3125L23.6212 18.6133C24.2341 20.7575 25.3832 22.7101 26.9601 24.287C28.5369 25.8639 30.4896 27.013 32.6338 27.6258L40.9375 30L32.6367 32.3713C30.4925 32.9841 28.5399 34.1332 26.963 35.7101C25.3861 37.2869 24.237 39.2396 23.6242 41.3838L23.6212 41.3867ZM48.2554 20.4188L47.5 23.4375L46.7446 20.4188C46.3122 18.688 45.4176 17.1072 44.1564 15.8455C42.8952 14.5838 41.3148 13.6885 39.5842 13.2554L36.5625 12.5L39.5842 11.7446C41.3148 11.3115 42.8952 10.4162 44.1564 9.1545C45.4176 7.89277 46.3122 6.31203 46.7446 4.58125L47.5 1.5625L48.2554 4.58125C48.6881 6.31239 49.5831 7.89338 50.8449 9.15513C52.1066 10.4169 53.6876 11.3119 55.4188 11.7446L58.4375 12.5L55.4188 13.2554C53.6876 13.6881 52.1066 14.5831 50.8449 15.8449C49.5831 17.1066 48.6881 18.6876 48.2554 20.4188ZM44.2742 54.9871L43.125 58.4375L41.9758 54.9871C41.6537 54.0206 41.1109 53.1424 40.3905 52.422C39.6701 51.7016 38.7919 51.1588 37.8254 50.8367L34.375 49.6875L37.8254 48.5383C38.7919 48.2162 39.6701 47.6734 40.3905 46.953C41.1109 46.2326 41.6537 45.3544 41.9758 44.3879L43.125 40.9375L44.2742 44.3879C44.5963 45.3544 45.1391 46.2326 45.8595 46.953C46.5799 47.6734 47.4581 48.2162 48.4246 48.5383L51.875 49.6875L48.4246 50.8367C47.4581 51.1588 46.5799 51.7016 45.8595 52.422C45.1391 53.1424 44.5963 54.0206 44.2742 54.9871Z" stroke="#156578" stroke-width="3" stroke-linecap="round" stroke-linejoin="round"/>
</svg>
