<svg width="21" height="21" viewBox="0 0 21 21" fill="none" xmlns="http://www.w3.org/2000/svg">
<path d="M13.5 17.628C14.353 17.8757 15.2368 18.0009 16.125 18C17.5534 18.0021 18.9633 17.6764 20.246 17.048C20.2839 16.1517 20.0286 15.2675 19.5188 14.5293C19.009 13.7912 18.2724 13.2394 17.4207 12.9575C16.5691 12.6757 15.6487 12.6791 14.7992 12.9674C13.9497 13.2557 13.2173 13.813 12.713 14.555M13.5 17.628V17.625C13.5 16.512 13.214 15.465 12.713 14.555M13.5 17.628V17.734C11.5755 18.8931 9.37064 19.5038 7.12402 19.5C4.79302 19.5 2.61202 18.855 0.750024 17.734L0.749024 17.625C0.748257 16.2095 1.21864 14.8339 2.08601 13.7153C2.95338 12.5966 4.1684 11.7984 5.53951 11.4466C6.91063 11.0948 8.35985 11.2093 9.65869 11.7721C10.9575 12.3349 12.0321 13.314 12.713 14.555M10.5 4.875C10.5 5.77011 10.1444 6.62855 9.51151 7.26149C8.87857 7.89442 8.02013 8.25 7.12502 8.25C6.22992 8.25 5.37147 7.89442 4.73854 7.26149C4.1056 6.62855 3.75002 5.77011 3.75002 4.875C3.75002 3.97989 4.1056 3.12145 4.73854 2.48851C5.37147 1.85558 6.22992 1.5 7.12502 1.5C8.02013 1.5 8.87857 1.85558 9.51151 2.48851C10.1444 3.12145 10.5 3.97989 10.5 4.875ZM18.75 7.125C18.75 7.82119 18.4735 8.48887 17.9812 8.98116C17.4889 9.47344 16.8212 9.75 16.125 9.75C15.4288 9.75 14.7612 9.47344 14.2689 8.98116C13.7766 8.48887 13.5 7.82119 13.5 7.125C13.5 6.42881 13.7766 5.76113 14.2689 5.26884C14.7612 4.77656 15.4288 4.5 16.125 4.5C16.8212 4.5 17.4889 4.77656 17.9812 5.26884C18.4735 5.76113 18.75 6.42881 18.75 7.125Z" stroke="#156578" stroke-width="1.5" stroke-linecap="round" stroke-linejoin="round"/>
</svg>
