<svg width="22" height="20" viewBox="0 0 22 20" fill="none" xmlns="http://www.w3.org/2000/svg">
<path d="M16.0592 13.1509C16.527 12.8314 17.0757 12.651 17.6418 12.6303C18.2079 12.6097 18.7682 12.7498 19.258 13.0343C19.7479 13.3189 20.1471 13.7363 20.4096 14.2383C20.672 14.7402 20.787 15.3063 20.7412 15.8709C19.5414 16.2902 18.267 16.4534 17.0002 16.3499C16.9963 15.2165 16.67 14.1066 16.0592 13.1519C15.5171 12.3017 14.7693 11.6019 13.8851 11.1174C13.0008 10.6329 12.0086 10.3792 11.0002 10.3799C9.99207 10.3794 9.00006 10.6331 8.11596 11.1176C7.23186 11.6022 6.48423 12.3018 5.94223 13.1519M16.9992 16.3489L17.0002 16.3799C17.0002 16.6049 16.9882 16.8269 16.9632 17.0459C15.1486 18.087 13.0923 18.6332 11.0002 18.6299C8.83023 18.6299 6.79323 18.0539 5.03723 17.0459C5.01152 16.8145 4.99917 16.5817 5.00023 16.3489M5.00023 16.3489C3.73386 16.4561 2.46014 16.2936 1.26123 15.8719C1.21558 15.3074 1.33062 14.7416 1.59306 14.2398C1.85549 13.738 2.2546 13.3207 2.74423 13.0362C3.23386 12.7517 3.79403 12.6115 4.35995 12.632C4.92587 12.6525 5.47444 12.8327 5.94223 13.1519M5.00023 16.3489C5.00382 15.2156 5.33185 14.1068 5.94223 13.1519M14.0002 4.37988C14.0002 5.17553 13.6842 5.93859 13.1215 6.5012C12.5589 7.06381 11.7959 7.37988 11.0002 7.37988C10.2046 7.37988 9.44152 7.06381 8.87891 6.5012C8.3163 5.93859 8.00023 5.17553 8.00023 4.37988C8.00023 3.58423 8.3163 2.82117 8.87891 2.25856C9.44152 1.69595 10.2046 1.37988 11.0002 1.37988C11.7959 1.37988 12.5589 1.69595 13.1215 2.25856C13.6842 2.82117 14.0002 3.58423 14.0002 4.37988ZM20.0002 7.37988C20.0002 7.67536 19.942 7.96794 19.829 8.24092C19.7159 8.5139 19.5502 8.76194 19.3412 8.97087C19.1323 9.1798 18.8842 9.34554 18.6113 9.45861C18.3383 9.57168 18.0457 9.62988 17.7502 9.62988C17.4548 9.62988 17.1622 9.57168 16.8892 9.45861C16.6162 9.34554 16.3682 9.1798 16.1592 8.97087C15.9503 8.76194 15.7846 8.5139 15.6715 8.24092C15.5584 7.96794 15.5002 7.67536 15.5002 7.37988C15.5002 6.78315 15.7373 6.21085 16.1592 5.78889C16.5812 5.36694 17.1535 5.12988 17.7502 5.12988C18.347 5.12988 18.9193 5.36694 19.3412 5.78889C19.7632 6.21085 20.0002 6.78315 20.0002 7.37988ZM6.50023 7.37988C6.50023 7.67536 6.44203 7.96794 6.32896 8.24092C6.21589 8.5139 6.05015 8.76194 5.84122 8.97087C5.63229 9.1798 5.38425 9.34554 5.11127 9.45861C4.83828 9.57168 4.5457 9.62988 4.25023 9.62988C3.95476 9.62988 3.66217 9.57168 3.38919 9.45861C3.11621 9.34554 2.86817 9.1798 2.65924 8.97087C2.45031 8.76194 2.28457 8.5139 2.1715 8.24092C2.05843 7.96794 2.00023 7.67536 2.00023 7.37988C2.00023 6.78315 2.23728 6.21085 2.65924 5.78889C3.0812 5.36694 3.65349 5.12988 4.25023 5.12988C4.84697 5.12988 5.41926 5.36694 5.84122 5.78889C6.26318 6.21085 6.50023 6.78315 6.50023 7.37988Z" stroke="white" stroke-width="1.5" stroke-linecap="round" stroke-linejoin="round"/>
</svg>
