<svg width="22" height="21" viewBox="0 0 22 21" fill="none" xmlns="http://www.w3.org/2000/svg">
<path d="M19.25 7.14088C20.134 7.42488 20.75 8.26888 20.75 9.23788V13.5239C20.75 14.6599 19.903 15.6239 18.77 15.7169C18.43 15.7439 18.09 15.7689 17.75 15.7889V18.8799L14.75 15.8799C13.396 15.8799 12.056 15.8249 10.73 15.7169C10.4413 15.6936 10.1605 15.6112 9.905 15.4749M19.25 7.14088C19.0955 7.09115 18.9358 7.05928 18.774 7.04588C16.0959 6.82357 13.4041 6.82357 10.726 7.04588C9.595 7.13988 8.75 8.10288 8.75 9.23788V13.5239C8.75 14.3609 9.21 15.1039 9.905 15.4749M19.25 7.14088V5.26688C19.25 3.64588 18.098 2.24088 16.49 2.03188C14.4208 1.76368 12.3365 1.6294 10.25 1.62988C8.135 1.62988 6.052 1.76688 4.01 2.03188C2.402 2.24088 1.25 3.64588 1.25 5.26688V11.4929C1.25 13.1139 2.402 14.5189 4.01 14.7279C4.587 14.8029 5.167 14.8679 5.75 14.9219V19.6299L9.905 15.4749" stroke="white" stroke-width="1.5" stroke-linecap="round" stroke-linejoin="round"/>
</svg>
