<svg width="18" height="22" viewBox="0 0 18 22" fill="none" xmlns="http://www.w3.org/2000/svg">
<path d="M6 12.8799L12 6.87994M16.5 3.38694V20.3799L12.75 18.8799L9 20.3799L5.25 18.8799L1.5 20.3799V3.38694C1.5 2.27894 2.306 1.32994 3.407 1.20194C7.12319 0.770577 10.8768 0.770577 14.593 1.20194C15.693 1.32994 16.5 2.27894 16.5 3.38694ZM6.75 7.62994H6.758V7.63794H6.75V7.62994ZM7.125 7.62994C7.125 7.7294 7.08549 7.82478 7.01517 7.89511C6.94484 7.96543 6.84946 8.00494 6.75 8.00494C6.65054 8.00494 6.55516 7.96543 6.48483 7.89511C6.41451 7.82478 6.375 7.7294 6.375 7.62994C6.375 7.53049 6.41451 7.4351 6.48483 7.36478C6.55516 7.29445 6.65054 7.25494 6.75 7.25494C6.84946 7.25494 6.94484 7.29445 7.01517 7.36478C7.08549 7.4351 7.125 7.53049 7.125 7.62994ZM11.25 12.1299H11.258V12.1379H11.25V12.1299ZM11.625 12.1299C11.625 12.2294 11.5855 12.3248 11.5152 12.3951C11.4448 12.4654 11.3495 12.5049 11.25 12.5049C11.1505 12.5049 11.0552 12.4654 10.9848 12.3951C10.9145 12.3248 10.875 12.2294 10.875 12.1299C10.875 12.0305 10.9145 11.9351 10.9848 11.8648C11.0552 11.7945 11.1505 11.7549 11.25 11.7549C11.3495 11.7549 11.4448 11.7945 11.5152 11.8648C11.5855 11.9351 11.625 12.0305 11.625 12.1299Z" stroke="white" stroke-width="1.5" stroke-linecap="round" stroke-linejoin="round"/>
</svg>
