<svg width="29" height="32" viewBox="0 0 29 32" fill="none" xmlns="http://www.w3.org/2000/svg">
<path d="M17.4959 2.89706C17.1716 3.82877 17.0712 4.53053 17.1532 5.31495C17.3173 6.86345 18.1606 8.18368 19.5205 9.00227C20.1873 9.40599 20.6055 9.55292 21.373 9.65697C22.9125 9.86824 24.178 9.45799 25.4926 8.3112C25.5383 8.27397 25.8342 8.4607 26.9349 9.21955L28.322 10.1791L28.425 10.4396C28.485 10.5824 28.5209 10.8111 28.5027 10.9486C28.4713 11.1862 28.4159 11.2781 26.3982 14.2582L24.3268 17.3177L23.4206 16.7042C22.5612 16.1223 22.5066 16.0922 22.2922 16.0969C21.9723 16.0946 21.7172 16.2363 21.5595 16.4454L20.7072 15.8865C20.8747 15.6248 20.8906 15.275 20.7094 14.9435C20.6614 14.8634 20.1883 14.5158 19.2448 13.877C17.8715 12.9472 17.8435 12.9282 17.6244 12.9298C17.2895 12.9331 17.0133 13.1104 16.8595 13.3634L16.0027 12.8015C16.1853 12.5661 16.2502 12.2426 16.128 11.9303L16.0358 11.7044L14.6313 10.7603C13.8606 10.2385 13.1753 9.80177 13.1035 9.78718C13.0394 9.77107 12.8688 9.79176 12.7214 9.82825C12.4556 9.8994 12.2565 10.062 12.1523 10.2766L11.2946 9.71417C11.5142 9.47946 11.6045 9.12481 11.4555 8.76C11.3803 8.5592 11.3321 8.51974 10.4726 7.93785L9.56645 7.32433L11.6379 4.26483C13.6429 1.30342 13.7203 1.19914 13.9292 1.08173C14.1428 0.967485 14.4231 0.925682 14.6824 0.985424C14.9074 1.03553 17.5246 2.81435 17.4959 2.89706Z" fill="#F5A002"/>
<path d="M21.6462 17.6146C21.7285 17.7044 22.1377 18.0155 22.5581 18.3001L23.3148 18.8124L19.2511 24.8147C15.2347 30.7468 15.1841 30.8216 14.9674 30.9405C14.8464 31.0085 14.6208 31.06 14.4659 31.0574L14.1812 31.0553L7.38018 26.4508L0.579204 21.8462L0.471571 21.5826C0.411575 21.4398 0.375661 21.2112 0.393854 21.0736C0.42377 20.8282 0.47437 20.7535 4.4907 14.8213L8.55446 8.81905L9.31583 9.33453C9.73155 9.61599 10.1724 9.88042 10.2863 9.92348C10.6805 10.078 11.0608 9.96404 11.2946 9.71417L12.1523 10.2766C12.0868 10.4113 12.0588 10.5666 12.0751 10.7326C12.1281 11.1977 12.1483 11.2182 13.643 12.2301L14.9976 13.1473L15.2745 13.1508C15.5789 13.1537 15.8384 13.0132 16.0027 12.8015L16.8595 13.3634C16.7173 13.5973 16.6797 13.896 16.7972 14.1818L16.8987 14.4344L18.099 15.2675C19.5296 16.2633 19.7448 16.3681 20.1523 16.2694C20.4005 16.2082 20.5906 16.0687 20.7072 15.8865L21.5595 16.4454C21.3163 16.7681 21.3052 17.2514 21.6462 17.6146Z" fill="#002035"/>
<path d="M11.5889 13.5029C10.4792 13.1195 9.16658 13.5591 8.49779 14.5369C7.75461 15.6346 7.92222 17.1377 8.89822 18.0506C9.97052 19.0627 11.7187 18.986 12.7279 17.8777C13.6472 16.872 13.6433 15.2276 12.7211 14.2354C12.4742 13.9661 11.9416 13.6259 11.5889 13.5029ZM11.48 15.5955C11.9335 16.284 11.242 17.1646 10.4427 16.9164C10.1305 16.814 9.9087 16.548 9.84865 16.194C9.70047 15.2558 10.9601 14.7939 11.48 15.5955Z" fill="white"/>
<path d="M17.1353 18.382C16.9572 18.3432 5.88871 20.4544 5.66728 20.5702C5.43486 20.6921 5.23849 21.0224 5.23811 21.2946C5.23462 21.7827 5.5199 22.1462 5.96675 22.2307C6.07613 22.2503 8.5262 21.8109 11.7803 21.1802C17.8653 20.0003 17.5754 20.0764 17.7837 19.5976C17.9921 19.1188 17.6617 18.5 17.1353 18.382Z" fill="white"/>
<path d="M13.2649 21.995C12.2505 21.642 11.0954 21.9294 10.3654 22.7158C9.16083 24.012 9.56619 26.1803 11.1612 26.9536C12.5956 27.6522 14.3622 26.9546 14.8828 25.4814C15.3889 24.0597 14.6524 22.4711 13.2649 21.995ZM13.1851 24.1957C13.3322 24.6223 13.1976 25.0625 12.8471 25.2885C12.4432 25.5531 11.8371 25.4221 11.5959 25.0135C11.4074 24.6883 11.4175 24.3614 11.6294 24.0485C11.9425 23.586 12.475 23.5038 12.9106 23.8464C13.0273 23.9458 13.1498 24.0969 13.1851 24.1957Z" fill="white"/>
</svg>
