<svg width="18" height="19" viewBox="0 0 18 19" fill="none" xmlns="http://www.w3.org/2000/svg">
<path d="M16.7143 0.629883H1.28571C0.944826 0.630223 0.617997 0.765791 0.376953 1.00684C0.135908 1.24788 0.000340378 1.57471 0 1.9156V17.3442C0.000391329 17.685 0.135976 18.0118 0.377009 18.2529C0.618043 18.4939 0.944842 18.6295 1.28571 18.6299H16.7143C17.0551 18.6294 17.3819 18.4938 17.6229 18.2528C17.8639 18.0118 17.9995 17.685 18 17.3442V1.9156C17.9996 1.57472 17.864 1.24793 17.623 1.00689C17.382 0.765859 17.0552 0.630274 16.7143 0.629883ZM16.7143 6.4156H7.71429V1.9156H16.7143V6.4156ZM6.42857 1.9156V6.4156H1.28571V1.9156H6.42857ZM1.28571 17.3442V7.70131H16.7147L16.7156 17.3442H1.28571Z" fill="white"/>
<path d="M15.4288 15.4157V13.4871C15.4288 13.1321 15.141 12.8442 14.7859 12.8442C14.4309 12.8442 14.1431 13.1321 14.1431 13.4871V15.4157C14.1431 15.7707 14.4309 16.0585 14.7859 16.0585C15.141 16.0585 15.4288 15.7707 15.4288 15.4157Z" fill="white"/>
<path d="M12.857 15.4156V10.2727C12.857 9.9177 12.5692 9.62988 12.2141 9.62988C11.8591 9.62988 11.5713 9.9177 11.5713 10.2727V15.4156C11.5713 15.7706 11.8591 16.0585 12.2141 16.0585C12.5692 16.0585 12.857 15.7706 12.857 15.4156Z" fill="white"/>
<path d="M5.78557 16.0585C4.9334 16.0575 4.11642 15.7185 3.51384 15.1159C2.95861 14.5607 2.62719 13.8234 2.57775 13.0443C2.57075 12.934 2.66098 12.8442 2.77152 12.8442H3.657C3.76746 12.8442 3.85593 12.934 3.86736 13.0438C3.89972 13.3547 4.00728 13.6541 4.18203 13.9156C4.39394 14.2328 4.69514 14.48 5.04754 14.6259C5.39994 14.7719 5.78771 14.8101 6.16182 14.7357C6.53593 14.6613 6.87957 14.4776 7.14928 14.2079C7.419 13.9382 7.60268 13.5945 7.67709 13.2204C7.7515 12.8463 7.71331 12.4585 7.56734 12.1061C7.42137 11.7537 7.17418 11.4525 6.85703 11.2406C6.5955 11.0659 6.29609 10.9583 5.98522 10.926C5.87536 10.9145 5.78557 10.8261 5.78557 10.7156V9.82988C5.78557 9.71943 5.87523 9.62923 5.98547 9.6361C6.76501 9.68464 7.50291 10.0158 8.05842 10.5713C8.66121 11.1741 8.99986 11.9917 8.99986 12.8442C8.99986 13.6967 8.66121 14.5142 8.05842 15.117C7.45562 15.7198 6.63806 16.0585 5.78557 16.0585Z" fill="white"/>
</svg>
