<svg width="28" height="28" viewBox="0 0 28 28" fill="none" xmlns="http://www.w3.org/2000/svg">
<path d="M17.1967 10.5006L16.793 21.0006M11.207 21.0006L10.8033 10.5006M22.4327 6.75561C22.8317 6.81627 23.2283 6.88044 23.625 6.94927M22.4327 6.75561L21.1867 22.9524C21.1358 23.6119 20.8379 24.2278 20.3525 24.6771C19.8671 25.1263 19.2301 25.3758 18.5687 25.3756H9.43133C8.76995 25.3758 8.13286 25.1263 7.64748 24.6771C7.16209 24.2278 6.86419 23.6119 6.81333 22.9524L5.56733 6.75561M22.4327 6.75561C21.0862 6.55204 19.7327 6.39755 18.375 6.29244M5.56733 6.75561C5.16833 6.81511 4.77167 6.87927 4.375 6.94811M5.56733 6.75561C6.91382 6.55205 8.26727 6.39756 9.625 6.29244M18.375 6.29244V5.22378C18.375 3.84711 17.3133 2.69911 15.9367 2.65594C14.6459 2.61469 13.3541 2.61469 12.0633 2.65594C10.6867 2.69911 9.625 3.84828 9.625 5.22378V6.29244M18.375 6.29244C15.4627 6.06737 12.5373 6.06737 9.625 6.29244" stroke="#9E0000" stroke-width="1.1" stroke-linecap="round" stroke-linejoin="round"/>
</svg>
