<svg width="139" height="138" viewBox="0 0 139 138" fill="none" xmlns="http://www.w3.org/2000/svg">
<path d="M28.1783 61.3852C19.1181 123.176 33.983 148.559 85.4456 130.851C43.7237 119.295 34.231 99.0497 28.1783 61.3852Z" fill="#E5005C"/>
<path d="M51.4776 29.9625C5.45016 50.3088 -20.7348 77.1573 26.2542 117.855C11.5323 66.9674 29.9173 51.926 51.4776 29.9625Z" fill="#E5005C"/>
<path d="M85.9291 32.3317C38.1881 1.61857 14.5947 5.0249 4.82453 55.2947C33.597 25.0102 47.769 18.3653 85.9291 32.3317Z" fill="#E5005C"/>
<path fill-rule="evenodd" clip-rule="evenodd" d="M42.3089 59.0196C51.5097 59.4398 55.994 56.2548 51.7031 46.2966L58.1558 41.5745C62.6622 49.78 71.9681 47.8999 72.3882 38.6991L80.7154 40.4352C79.969 50.8414 86.2172 53.5673 93.7646 48.624L98.5973 55.6241C89.8445 60.2411 91.0665 69.1102 101.583 70.4039L99.8472 78.7311C90.862 76.5581 85.0674 81.7171 91.111 91.8909L84.0003 96.1762C80.5887 87.7496 69.9669 88.756 69.7679 99.0516L61.4407 97.3155C62.1871 86.9093 56.4863 84.0728 48.3915 89.1267L44.1062 82.0161C52.2011 76.9622 50.6528 69.2986 41.1202 67.2362L42.3089 59.0196ZM74.8935 87.7607C85.1724 85.684 91.8217 75.6679 89.745 65.3889C87.6683 55.11 77.6522 48.4608 67.3732 50.5374C57.0943 52.6141 50.4451 62.6303 52.5217 72.9092C54.5984 83.1881 64.6146 89.8374 74.8935 87.7607Z" fill="#363031" stroke="#363031"/>
<path d="M111.557 75.0524C119.932 13.1646 104.787 -12.052 53.5238 6.22514C95.371 17.3178 105.087 37.4572 111.557 75.0524Z" fill="#E5005C"/>
<path d="M88.6066 106.731C134.406 85.8765 160.292 58.7397 112.855 18.5651C128.14 69.2863 109.922 84.5303 88.6066 106.731Z" fill="#E5005C"/>
<path d="M54.131 104.743C102.209 134.926 125.763 131.259 134.976 80.884C106.541 111.485 92.4434 118.287 54.131 104.743Z" fill="#E5005C"/>
</svg>
