<svg width="64" height="55" viewBox="0 0 64 55" fill="none" xmlns="http://www.w3.org/2000/svg">
<path d="M9.42534 21.595C8.6231 27.7363 8.14508 33.9155 7.99326 40.1071C16.3898 43.6144 24.4292 47.9218 32.0003 52.9696C39.5724 47.9216 47.6128 43.6142 56.0103 40.1071C55.8584 33.9155 55.3804 27.7363 54.5783 21.595M54.5783 21.595C57.1303 20.7375 59.7174 19.9442 62.3308 19.2208C52.8124 12.5482 42.6519 6.84217 32.0003 2.1875C21.3487 6.84315 11.1882 12.5502 1.66992 19.2237C4.2753 19.9431 6.86044 20.7338 9.42242 21.595C17.2059 24.2119 24.758 27.4723 32.0003 31.3425C39.2417 27.4723 46.7957 24.2118 54.5783 21.595ZM16.6878 35.7496C17.268 35.7496 17.8244 35.5191 18.2346 35.1089C18.6449 34.6986 18.8753 34.1422 18.8753 33.5621C18.8753 32.9819 18.6449 32.4255 18.2346 32.0153C17.8244 31.6051 17.268 31.3746 16.6878 31.3746C16.1077 31.3746 15.5513 31.6051 15.141 32.0153C14.7308 32.4255 14.5003 32.9819 14.5003 33.5621C14.5003 34.1422 14.7308 34.6986 15.141 35.1089C15.5513 35.5191 16.1077 35.7496 16.6878 35.7496ZM16.6878 35.7496V25.0308C21.6366 21.9547 26.7483 19.1487 32.0003 16.625M11.5633 50.3125C13.1907 48.6891 14.4812 46.76 15.3606 44.6362C16.2401 42.5124 16.6911 40.2358 16.6878 37.9371V33.5621" stroke="#156578" stroke-width="3" stroke-linecap="round" stroke-linejoin="round"/>
</svg>
