<svg width="70" height="70" viewBox="0 0 70 70" fill="none" xmlns="http://www.w3.org/2000/svg">
<path d="M19.6875 8.75V15.3125M50.3125 8.75V15.3125M8.75 54.6875V21.875C8.75 20.1345 9.4414 18.4653 10.6721 17.2346C11.9028 16.0039 13.572 15.3125 15.3125 15.3125H54.6875C56.428 15.3125 58.0972 16.0039 59.3279 17.2346C60.5586 18.4653 61.25 20.1345 61.25 21.875V54.6875M8.75 54.6875C8.75 56.428 9.4414 58.0972 10.6721 59.3279C11.9028 60.5586 13.572 61.25 15.3125 61.25H54.6875C56.428 61.25 58.0972 60.5586 59.3279 59.3279C60.5586 58.0972 61.25 56.428 61.25 54.6875M8.75 54.6875V32.8125C8.75 31.072 9.4414 29.4028 10.6721 28.1721C11.9028 26.9414 13.572 26.25 15.3125 26.25H54.6875C56.428 26.25 58.0972 26.9414 59.3279 28.1721C60.5586 29.4028 61.25 31.072 61.25 32.8125V54.6875" stroke="#156578" stroke-width="3" stroke-linecap="round" stroke-linejoin="round"/>
<path d="M34.5031 35.3494C34.5435 35.246 34.6123 35.1576 34.7008 35.0954C34.7893 35.0332 34.8934 35 35 35C35.1065 35 35.2107 35.0332 35.2992 35.0954C35.3877 35.1576 35.4565 35.246 35.4969 35.3494L37.5276 40.4684C37.5656 40.5642 37.6281 40.6471 37.7082 40.7081C37.7883 40.7691 37.8828 40.8057 37.9815 40.814L43.2546 41.2567C43.7314 41.2967 43.9245 41.9207 43.5613 42.2462L39.5439 45.8539C39.4689 45.9212 39.413 46.0088 39.3823 46.1072C39.3516 46.2056 39.3474 46.311 39.37 46.4118L40.598 51.8052C40.6227 51.9135 40.6162 52.0269 40.5794 52.1313C40.5426 52.2356 40.4771 52.3262 40.3912 52.3916C40.3053 52.4569 40.2029 52.4942 40.0968 52.4986C39.9907 52.5029 39.8858 52.4743 39.7953 52.4162L35.28 49.5267C35.1957 49.4727 35.0988 49.4441 35 49.4441C34.9012 49.4441 34.8043 49.4727 34.72 49.5267L30.2047 52.4172C30.1142 52.4753 30.0093 52.5039 29.9032 52.4996C29.7971 52.4952 29.6947 52.458 29.6088 52.3926C29.5229 52.3272 29.4574 52.2366 29.4206 52.1323C29.3838 52.0279 29.3773 51.9145 29.402 51.8062L30.63 46.4118C30.6527 46.311 30.6486 46.2056 30.6179 46.1072C30.5872 46.0088 30.5312 45.9211 30.4561 45.8539L26.4387 42.2462C26.3578 42.1739 26.2991 42.0781 26.2702 41.9709C26.2413 41.8637 26.2434 41.7499 26.2763 41.6439C26.3091 41.538 26.3712 41.4446 26.4548 41.3757C26.5383 41.3067 26.6394 41.2653 26.7454 41.2567L32.0185 40.814C32.1171 40.8057 32.2117 40.7691 32.2918 40.7081C32.3719 40.6471 32.4344 40.5642 32.4724 40.4684L34.5031 35.3494Z" stroke="#156578" stroke-width="3" stroke-linecap="round" stroke-linejoin="round"/>
</svg>
