<svg width="40" height="40" viewBox="0 0 40 40" fill="none" xmlns="http://www.w3.org/2000/svg">
<rect width="40" height="40" rx="20" fill="#156578"/>
<path d="M14.75 11V13.25M25.25 11V13.25M11 26.75V15.5C11 14.9033 11.2371 14.331 11.659 13.909C12.081 13.4871 12.6533 13.25 13.25 13.25H26.75C27.3467 13.25 27.919 13.4871 28.341 13.909C28.7629 14.331 29 14.9033 29 15.5V26.75M11 26.75C11 27.3467 11.2371 27.919 11.659 28.341C12.081 28.7629 12.6533 29 13.25 29H26.75C27.3467 29 27.919 28.7629 28.341 28.341C28.7629 27.919 29 27.3467 29 26.75M11 26.75V19.25C11 18.6533 11.2371 18.081 11.659 17.659C12.081 17.2371 12.6533 17 13.25 17H26.75C27.3467 17 27.919 17.2371 28.341 17.659C28.7629 18.081 29 18.6533 29 19.25V26.75" stroke="white" stroke-width="1.5" stroke-linecap="round" stroke-linejoin="round"/>
</svg>
