<svg width="21" height="22" viewBox="0 0 21 22" fill="none" xmlns="http://www.w3.org/2000/svg">
<path d="M14.09 13.37C14.2982 14.2511 14.3044 15.1678 14.108 16.0516C13.9116 16.9354 13.5177 17.7633 12.9559 18.4732C12.3941 19.1832 11.6789 19.7568 10.864 20.1511C10.049 20.5454 9.15534 20.7501 8.25 20.75V15.95M14.09 13.37C15.9999 11.9788 17.5536 10.1555 18.6242 8.04908C19.6947 5.94267 20.2519 3.61287 20.25 1.25C17.8873 1.2483 15.5577 1.80549 13.4515 2.87607C11.3452 3.94665 9.52212 5.50026 8.131 7.41M14.09 13.37C12.3519 14.6413 10.3603 15.5214 8.25 15.95M8.25 15.95C8.147 15.971 8.043 15.991 7.939 16.01C7.03179 15.2906 6.21038 14.4692 5.491 13.562C5.50989 13.4578 5.52889 13.3538 5.55 13.25M8.131 7.41C7.24986 7.2016 6.33298 7.19532 5.44907 7.39164C4.56516 7.58797 3.73714 7.98179 3.02707 8.54362C2.317 9.10544 1.7433 9.82068 1.34895 10.6357C0.9546 11.4508 0.749835 12.3446 0.75 13.25H5.55M8.131 7.41C6.85988 9.14782 5.97875 11.14 5.55 13.25M3.311 15.64C2.65318 16.1292 2.14173 16.789 1.83202 17.548C1.52232 18.307 1.42618 19.1363 1.554 19.946C2.36383 20.0737 3.19316 19.9774 3.95218 19.6675C4.71119 19.3577 5.37095 18.846 5.86 18.188M15 8C15 8.39783 14.842 8.77936 14.5607 9.06066C14.2794 9.34197 13.8978 9.5 13.5 9.5C13.1022 9.5 12.7206 9.34197 12.4393 9.06066C12.158 8.77936 12 8.39783 12 8C12 7.60218 12.158 7.22065 12.4393 6.93934C12.7206 6.65804 13.1022 6.5 13.5 6.5C13.8978 6.5 14.2794 6.65804 14.5607 6.93934C14.842 7.22065 15 7.60218 15 8Z" stroke="white" stroke-width="1.2" stroke-linecap="round" stroke-linejoin="round"/>
</svg>
