<svg width="20" height="20" viewBox="0 0 20 20" fill="none" xmlns="http://www.w3.org/2000/svg">
<path d="M9.48016 1.49921C9.52246 1.39605 9.59449 1.30779 9.68708 1.24567C9.77968 1.18356 9.88866 1.15039 10.0002 1.15039C10.1117 1.15039 10.2206 1.18356 10.3132 1.24567C10.4058 1.30779 10.4779 1.39605 10.5202 1.49921L12.6452 6.61021C12.6849 6.70585 12.7503 6.78866 12.8341 6.84953C12.9179 6.9104 13.0169 6.94697 13.1202 6.95521L18.6382 7.39721C19.1372 7.43721 19.3392 8.06021 18.9592 8.38521L14.7552 11.9872C14.6766 12.0544 14.6181 12.1419 14.586 12.2402C14.5539 12.3384 14.5494 12.4436 14.5732 12.5442L15.8582 17.9292C15.884 18.0373 15.8772 18.1505 15.8387 18.2547C15.8002 18.3589 15.7317 18.4494 15.6418 18.5146C15.5519 18.5799 15.4447 18.6171 15.3337 18.6214C15.2227 18.6258 15.1129 18.5972 15.0182 18.5392L10.2932 15.6542C10.2049 15.6003 10.1036 15.5718 10.0002 15.5718C9.89678 15.5718 9.79539 15.6003 9.70716 15.6542L4.98216 18.5402C4.88742 18.5982 4.77762 18.6268 4.66662 18.6224C4.55562 18.6181 4.44841 18.5809 4.35853 18.5156C4.26865 18.4504 4.20013 18.3599 4.16162 18.2557C4.12311 18.1515 4.11634 18.0383 4.14216 17.9302L5.42716 12.5442C5.451 12.4436 5.44661 12.3384 5.4145 12.2401C5.38239 12.1418 5.3238 12.0543 5.24516 11.9872L1.04116 8.38521C0.956507 8.31305 0.895171 8.21738 0.864924 8.11033C0.834677 8.00328 0.836879 7.88966 0.871253 7.78386C0.905627 7.67807 0.970625 7.58485 1.05802 7.51602C1.14541 7.44719 1.25126 7.40584 1.36216 7.39721L6.88016 6.95521C6.98341 6.94697 7.08239 6.9104 7.16619 6.84953C7.25 6.78866 7.31539 6.70585 7.35516 6.61021L9.48016 1.49921Z" stroke="white" stroke-width="1.5" stroke-linecap="round" stroke-linejoin="round"/>
</svg>
