<svg width="28" height="28" viewBox="0 0 28 28" fill="none" xmlns="http://www.w3.org/2000/svg">
<path d="M13.9997 11.6665H4.66634C3.37768 11.6665 2.33301 12.7112 2.33301 13.9998V23.3332C2.33301 24.6218 3.37768 25.6665 4.66634 25.6665H13.9997C15.2883 25.6665 16.333 24.6218 16.333 23.3332V13.9998C16.333 12.7112 15.2883 11.6665 13.9997 11.6665Z" stroke="white" stroke-width="1.5" stroke-linecap="round" stroke-linejoin="round"/>
<path d="M20.907 16.3332L24.9903 12.2499C25.4232 11.7698 25.6628 11.1463 25.6628 10.4999C25.6628 9.85343 25.4232 9.22995 24.9903 8.74986L19.157 3.00986C18.6769 2.57698 18.0534 2.3374 17.407 2.3374C16.7606 2.3374 16.1371 2.57698 15.657 3.00986L11.667 6.99986" stroke="white" stroke-width="1.5" stroke-linecap="round" stroke-linejoin="round"/>
<path d="M7 21H7.01167" stroke="white" stroke-width="1.5" stroke-linecap="round" stroke-linejoin="round"/>
<path d="M11.667 16.3335H11.6787" stroke="white" stroke-width="1.5" stroke-linecap="round" stroke-linejoin="round"/>
<path d="M17.5 7H17.5117" stroke="white" stroke-width="1.5" stroke-linecap="round" stroke-linejoin="round"/>
<path d="M21 10.5H21.0117" stroke="white" stroke-width="1.5" stroke-linecap="round" stroke-linejoin="round"/>
</svg>
