<svg width="24" height="24" viewBox="0 0 24 24" fill="none" xmlns="http://www.w3.org/2000/svg">
<path d="M6.633 10.25C7.439 10.25 8.166 9.804 8.664 9.17C9.44026 8.17962 10.4147 7.36218 11.525 6.77C12.248 6.386 12.875 5.814 13.178 5.055C13.3908 4.52325 13.5001 3.95575 13.5 3.383V2.75C13.5 2.55109 13.579 2.36032 13.7197 2.21967C13.8603 2.07902 14.0511 2 14.25 2C14.8467 2 15.419 2.23705 15.841 2.65901C16.263 3.08097 16.5 3.65326 16.5 4.25C16.5 5.402 16.24 6.493 15.777 7.468C15.511 8.026 15.884 8.75 16.502 8.75M16.502 8.75H19.628C20.654 8.75 21.573 9.444 21.682 10.465C21.727 10.887 21.75 11.315 21.75 11.75C21.7541 14.4863 20.8191 17.1412 19.101 19.271C18.713 19.753 18.114 20 17.496 20H13.48C12.997 20 12.516 19.922 12.057 19.77L8.943 18.73C8.48411 18.5774 8.00361 18.4997 7.52 18.5H5.904M16.502 8.75H14.25M5.904 18.5C5.987 18.705 6.077 18.905 6.174 19.102C6.371 19.502 6.096 20 5.651 20H4.743C3.854 20 3.03 19.482 2.771 18.632C2.42465 17.4952 2.24906 16.3133 2.25 15.125C2.25 13.572 2.545 12.089 3.081 10.727C3.387 9.953 4.167 9.5 5 9.5H6.053C6.525 9.5 6.798 10.056 6.553 10.46C5.69889 11.866 5.24843 13.4799 5.251 15.125C5.251 16.319 5.483 17.458 5.905 18.5H5.904Z" stroke="black" stroke-width="1.5" stroke-linecap="round" stroke-linejoin="round"/>
</svg>
