<svg width="18" height="18" viewBox="0 0 18 18" fill="none" xmlns="http://www.w3.org/2000/svg">
<path d="M11.25 7.875C11.25 8.47174 11.0129 9.04403 10.591 9.46599C10.169 9.88795 9.59674 10.125 9 10.125C8.40326 10.125 7.83097 9.88795 7.40901 9.46599C6.98705 9.04403 6.75 8.47174 6.75 7.875C6.75 7.27826 6.98705 6.70597 7.40901 6.28401C7.83097 5.86205 8.40326 5.625 9 5.625C9.59674 5.625 10.169 5.86205 10.591 6.28401C11.0129 6.70597 11.25 7.27826 11.25 7.875Z" stroke="white" stroke-linecap="round" stroke-linejoin="round"/>
<path d="M14.625 7.875C14.625 13.2315 9 16.3125 9 16.3125C9 16.3125 3.375 13.2315 3.375 7.875C3.375 6.38316 3.96763 4.95242 5.02252 3.89752C6.07742 2.84263 7.50816 2.25 9 2.25C10.4918 2.25 11.9226 2.84263 12.9775 3.89752C14.0324 4.95242 14.625 6.38316 14.625 7.875Z" stroke="white" stroke-width="1.2" stroke-linecap="round" stroke-linejoin="round"/>
</svg>
