<svg width="41" height="41" viewBox="0 0 41 41" fill="none" xmlns="http://www.w3.org/2000/svg">
<path d="M25.625 17.9375C25.625 19.2967 25.085 20.6003 24.1239 21.5614C23.1628 22.5225 21.8592 23.0625 20.5 23.0625C19.1408 23.0625 17.8372 22.5225 16.8761 21.5614C15.915 20.6003 15.375 19.2967 15.375 17.9375C15.375 16.5783 15.915 15.2747 16.8761 14.3136C17.8372 13.3525 19.1408 12.8125 20.5 12.8125C21.8592 12.8125 23.1628 13.3525 24.1239 14.3136C25.085 15.2747 25.625 16.5783 25.625 17.9375Z" stroke="black" stroke-width="1.5" stroke-linecap="round" stroke-linejoin="round"/>
<path d="M33.3125 17.9375C33.3125 30.1384 20.5 37.1563 20.5 37.1563C20.5 37.1563 7.6875 30.1384 7.6875 17.9375C7.6875 14.5394 9.03738 11.2805 11.4402 8.87769C13.843 6.47488 17.1019 5.125 20.5 5.125C23.8981 5.125 27.157 6.47488 29.5598 8.87769C31.9626 11.2805 33.3125 14.5394 33.3125 17.9375Z" stroke="black" stroke-width="1.5" stroke-linecap="round" stroke-linejoin="round"/>
</svg>
