<svg width="20" height="20" viewBox="0 0 20 20" fill="none" xmlns="http://www.w3.org/2000/svg">
<path d="M7 4.3799V12.6299M13 6.6299V14.8799M13.503 18.3779L18.378 15.9409C18.759 15.7509 19 15.3609 19 14.9349V2.4499C19 1.6139 18.12 1.0699 17.372 1.4439L13.503 3.3779C13.186 3.5369 12.813 3.5369 12.497 3.3779L7.503 0.881896C7.34682 0.803827 7.17461 0.763184 7 0.763184C6.82539 0.763184 6.65318 0.803827 6.497 0.881896L1.622 3.3189C1.24 3.5099 1 3.8999 1 4.3249V16.8099C1 17.6459 1.88 18.1899 2.628 17.8159L6.497 15.8819C6.814 15.7229 7.187 15.7229 7.503 15.8819L12.497 18.3789C12.814 18.5369 13.187 18.5369 13.503 18.3789V18.3779Z" stroke="white" stroke-width="1.5" stroke-linecap="round" stroke-linejoin="round"/>
</svg>
