<svg width="20" height="20" viewBox="0 0 20 20" fill="none" xmlns="http://www.w3.org/2000/svg">
<mask id="path-1-inside-1_387_10572" fill="white">
<path fill-rule="evenodd" clip-rule="evenodd" d="M0 8C0 3.58172 3.58173 0 8.00005 0C12.4182 0 16.0001 3.58172 16.0001 8C16.0001 10.029 15.244 11.8823 13.9994 13.2923L19.5001 18.7929C19.6953 18.9882 19.6953 19.3047 19.5001 19.5C19.3048 19.6953 18.9882 19.6953 18.7929 19.5L13.2923 13.9994C11.8823 15.2441 10.029 16 8.00005 16C3.58173 16 0 12.4183 0 8ZM8.00005 1C4.13401 1 1 4.13401 1 8C1 11.866 4.13401 15 8.00005 15C9.93315 15 11.6824 14.217 12.9497 12.9497C14.217 11.6825 15.0001 9.9331 15.0001 8C15.0001 4.13401 11.8659 1 8.00005 1Z"/>
</mask>
<path fill-rule="evenodd" clip-rule="evenodd" d="M0 8C0 3.58172 3.58173 0 8.00005 0C12.4182 0 16.0001 3.58172 16.0001 8C16.0001 10.029 15.244 11.8823 13.9994 13.2923L19.5001 18.7929C19.6953 18.9882 19.6953 19.3047 19.5001 19.5C19.3048 19.6953 18.9882 19.6953 18.7929 19.5L13.2923 13.9994C11.8823 15.2441 10.029 16 8.00005 16C3.58173 16 0 12.4183 0 8ZM8.00005 1C4.13401 1 1 4.13401 1 8C1 11.866 4.13401 15 8.00005 15C9.93315 15 11.6824 14.217 12.9497 12.9497C14.217 11.6825 15.0001 9.9331 15.0001 8C15.0001 4.13401 11.8659 1 8.00005 1Z" fill="#333130"/>
<path d="M13.9994 13.2923L13.0998 12.4982L12.3536 13.3435L13.1509 14.1408L13.9994 13.2923ZM19.5001 18.7929L20.3488 17.9446L20.3486 17.9444L19.5001 18.7929ZM19.5001 19.5L20.3486 20.3485L20.3488 20.3483L19.5001 19.5ZM18.7929 19.5L17.9443 20.3485L17.9443 20.3485L18.7929 19.5ZM13.2923 13.9994L14.1409 13.1509L13.3435 12.3535L12.4982 13.0998L13.2923 13.9994ZM12.9497 12.9497L12.1013 12.1011L12.1012 12.1012L12.9497 12.9497ZM1.2 8C1.2 4.24447 4.24447 1.2 8.00005 1.2V-1.2C2.91899 -1.2 -1.2 2.91897 -1.2 8H1.2ZM8.00005 1.2C11.7555 1.2 14.8001 4.24447 14.8001 8H17.2001C17.2001 2.91897 13.081 -1.2 8.00005 -1.2V1.2ZM14.8001 8C14.8001 9.72535 14.1584 11.2989 13.0998 12.4982L14.8991 14.0864C16.3297 12.4657 17.2001 10.3327 17.2001 8H14.8001ZM13.1509 14.1408L18.6515 19.6414L20.3486 17.9444L14.848 12.4438L13.1509 14.1408ZM18.6513 19.6412C18.3782 19.3679 18.3782 18.925 18.6513 18.6517L20.3488 20.3483C21.0123 19.6844 21.0123 18.6085 20.3488 17.9446L18.6513 19.6412ZM18.6515 18.6515C18.9249 18.3781 19.368 18.3781 19.6414 18.6515L17.9443 20.3485C18.6083 21.0125 19.6847 21.0125 20.3486 20.3485L18.6515 18.6515ZM19.6414 18.6515L14.1409 13.1509L12.4438 14.8479L17.9443 20.3485L19.6414 18.6515ZM12.4982 13.0998C11.299 14.1584 9.72544 14.8 8.00005 14.8V17.2C10.3327 17.2 12.4657 16.3298 14.0865 14.899L12.4982 13.0998ZM8.00005 14.8C4.24446 14.8 1.2 11.7556 1.2 8H-1.2C-1.2 13.081 2.919 17.2 8.00005 17.2V14.8ZM8.00005 -0.2C3.47127 -0.2 -0.2 3.47126 -0.2 8H2.2C2.2 4.79676 4.79675 2.2 8.00005 2.2V-0.2ZM-0.2 8C-0.2 12.5287 3.47127 16.2 8.00005 16.2V13.8C4.79674 13.8 2.2 11.2033 2.2 8H-0.2ZM8.00005 16.2C10.2642 16.2 12.3151 15.2814 13.7983 13.7982L12.1012 12.1012C11.0498 13.1526 9.60214 13.8 8.00005 13.8V16.2ZM13.7982 13.7983C15.2815 12.3152 16.2001 10.2641 16.2001 8H13.8001C13.8001 9.60212 13.1526 11.0498 12.1013 12.1011L13.7982 13.7983ZM16.2001 8C16.2001 3.47126 12.5287 -0.2 8.00005 -0.2V2.2C11.2032 2.2 13.8001 4.79676 13.8001 8H16.2001Z" fill="#333130" mask="url(#path-1-inside-1_387_10572)"/>
</svg>
