<svg width="16" height="16" viewBox="0 0 16 16" fill="none" xmlns="http://www.w3.org/2000/svg">
<path d="M13.5 9.43333V12.2667C13.5 12.996 12.9754 13.624 12.252 13.72C10.8607 13.9047 9.44137 14 8.00004 14C6.5587 14 5.13937 13.9047 3.74804 13.72C3.0247 13.624 2.50004 12.996 2.50004 12.2667V9.43333M13.5 9.43333C13.6583 9.29577 13.785 9.12557 13.8713 8.93442C13.9576 8.74328 14.0015 8.53572 14 8.326V5.804C14 5.08333 13.488 4.46067 12.7754 4.354C12.0202 4.24095 11.2613 4.15489 10.5 4.096M13.5 9.43333C13.3707 9.54333 13.22 9.63 13.0514 9.68667C11.4222 10.2272 9.71656 10.5019 8.00004 10.5C6.2347 10.5 4.5367 10.214 2.9487 9.68667C2.78421 9.63195 2.63185 9.54592 2.50004 9.43333M2.50004 9.43333C2.34173 9.29577 2.21508 9.12557 2.12877 8.93442C2.04246 8.74328 1.99855 8.53572 2.00004 8.326V5.804C2.00004 5.08333 2.51204 4.46067 3.2247 4.354C3.97984 4.24094 4.73876 4.15489 5.50004 4.096M10.5 4.096V3.5C10.5 3.10218 10.342 2.72064 10.0607 2.43934C9.77939 2.15804 9.39786 2 9.00004 2H7.00004C6.60221 2 6.22068 2.15804 5.93938 2.43934C5.65807 2.72064 5.50004 3.10218 5.50004 3.5V4.096M10.5 4.096C8.83585 3.96739 7.16422 3.96739 5.50004 4.096M8.00004 8.5H8.00537V8.50533H8.00004V8.5Z" stroke="#156578" stroke-width="1.2" stroke-linecap="round" stroke-linejoin="round"/>
</svg>
