<svg width="40" height="40" viewBox="0 0 40 40" fill="none" xmlns="http://www.w3.org/2000/svg">
<path d="M5 12.4998C5 12.0396 5.3731 11.6665 5.83333 11.6665H34.1667C34.6268 11.6665 35 12.0396 35 12.4998C35 12.9601 34.6268 13.3332 34.1667 13.3332H5.83333C5.3731 13.3332 5 12.9601 5 12.4998Z" fill="white"/>
<path d="M5.83333 19.1665C5.3731 19.1665 5 19.5395 5 19.9998C5 20.46 5.3731 20.8332 5.83333 20.8332H34.1667C34.6268 20.8332 35 20.46 35 19.9998C35 19.5395 34.6268 19.1665 34.1667 19.1665H5.83333Z" fill="white"/>
<path d="M5 27.4998C5 27.0397 5.3731 26.6665 5.83333 26.6665H34.1667C34.6268 26.6665 35 27.0397 35 27.4998C35 27.96 34.6268 28.3332 34.1667 28.3332H5.83333C5.3731 28.3332 5 27.96 5 27.4998Z" fill="white"/>
</svg>
