<svg width="20" height="21" viewBox="0 0 20 21" fill="none" xmlns="http://www.w3.org/2000/svg">
<path d="M12.857 15.7119C14.7202 15.4913 16.5509 15.0516 18.311 14.4019C16.8204 12.7507 15.9967 10.6044 16 8.37988V7.62988C16 6.03858 15.3678 4.51246 14.2426 3.38724C13.1174 2.26202 11.5913 1.62988 9.99999 1.62988C8.40869 1.62988 6.88257 2.26202 5.75735 3.38724C4.63213 4.51246 3.99999 6.03858 3.99999 7.62988V8.37988C4.00301 10.6045 3.17898 12.7508 1.68799 14.4019C3.42099 15.0419 5.24799 15.4869 7.14299 15.7119M12.857 15.7119C10.959 15.937 9.041 15.937 7.14299 15.7119M12.857 15.7119C13.0011 16.1617 13.0369 16.6393 12.9616 17.1056C12.8862 17.5719 12.7018 18.0139 12.4234 18.3955C12.1449 18.777 11.7803 19.0875 11.3592 19.3015C10.9381 19.5155 10.4724 19.6271 9.99999 19.6271C9.52761 19.6271 9.06191 19.5155 8.6408 19.3015C8.21968 19.0875 7.85506 18.777 7.57661 18.3955C7.29816 18.0139 7.11375 17.5719 7.0384 17.1056C6.96305 16.6393 6.99889 16.1617 7.14299 15.7119" stroke="white" stroke-width="1.5" stroke-linecap="round" stroke-linejoin="round"/>
</svg>
