<svg width="27" height="27" viewBox="0 0 27 27" fill="none" xmlns="http://www.w3.org/2000/svg">
<rect x="0.708496" width="26" height="27" rx="13" fill="#1D7E96"/>
<path d="M17.5028 16.2875C17.8536 16.0346 18.2652 15.8917 18.6897 15.8753C19.1143 15.859 19.5346 15.9699 19.9019 16.1952C20.2693 16.4204 20.5687 16.7509 20.7655 17.1483C20.9624 17.5457 21.0486 17.9938 21.0143 18.4408C20.1144 18.7728 19.1586 18.9019 18.2085 18.82C18.2056 17.9227 17.9608 17.0441 17.5028 16.2882C17.0962 15.6152 16.5354 15.0612 15.8722 14.6776C15.209 14.294 14.4648 14.0932 13.7085 14.0937C12.9524 14.0933 12.2084 14.2942 11.5453 14.6778C10.8823 15.0614 10.3215 15.6153 9.91505 16.2882M18.2078 18.8192L18.2085 18.8437C18.2085 19.0219 18.1995 19.1976 18.1808 19.371C16.8198 20.1952 15.2776 20.6276 13.7085 20.625C12.081 20.625 10.5533 20.169 9.2363 19.371C9.21701 19.1878 9.20775 19.0035 9.20855 18.8192M9.20855 18.8192C8.25877 18.9041 7.30348 18.7754 6.4043 18.4416C6.37006 17.9947 6.45634 17.5468 6.65317 17.1495C6.84999 16.7522 7.14932 16.4219 7.51655 16.1966C7.88377 15.9714 8.30389 15.8605 8.72833 15.8767C9.15278 15.8929 9.5642 16.0356 9.91505 16.2882M9.20855 18.8192C9.21124 17.922 9.45726 17.0442 9.91505 16.2882M15.9585 9.34375C15.9585 9.97364 15.7215 10.5777 15.2995 11.0231C14.8776 11.4685 14.3053 11.7187 13.7085 11.7187C13.1118 11.7187 12.5395 11.4685 12.1176 11.0231C11.6956 10.5777 11.4585 9.97364 11.4585 9.34375C11.4585 8.71386 11.6956 8.10977 12.1176 7.66437C12.5395 7.21897 13.1118 6.96875 13.7085 6.96875C14.3053 6.96875 14.8776 7.21897 15.2995 7.66437C15.7215 8.10977 15.9585 8.71386 15.9585 9.34375ZM20.4585 11.7187C20.4585 11.9527 20.4149 12.1843 20.3301 12.4004C20.2453 12.6165 20.121 12.8129 19.9643 12.9783C19.8076 13.1437 19.6216 13.2749 19.4168 13.3644C19.2121 13.4539 18.9927 13.5 18.771 13.5C18.5494 13.5 18.33 13.4539 18.1253 13.3644C17.9205 13.2749 17.7345 13.1437 17.5778 12.9783C17.4211 12.8129 17.2968 12.6165 17.212 12.4004C17.1272 12.1843 17.0835 11.9527 17.0835 11.7187C17.0835 11.2463 17.2613 10.7933 17.5778 10.4592C17.8943 10.1252 18.3235 9.9375 18.771 9.9375C19.2186 9.9375 19.6478 10.1252 19.9643 10.4592C20.2808 10.7933 20.4585 11.2463 20.4585 11.7187ZM10.3335 11.7187C10.3335 11.9527 10.2899 12.1843 10.2051 12.4004C10.1203 12.6165 9.99599 12.8129 9.83929 12.9783C9.68259 13.1437 9.49656 13.2749 9.29182 13.3644C9.08709 13.4539 8.86765 13.5 8.64605 13.5C8.42444 13.5 8.205 13.4539 8.00027 13.3644C7.79553 13.2749 7.6095 13.1437 7.4528 12.9783C7.2961 12.8129 7.1718 12.6165 7.087 12.4004C7.00219 12.1843 6.95855 11.9527 6.95855 11.7187C6.95855 11.2463 7.13634 10.7933 7.4528 10.4592C7.76927 10.1252 8.19849 9.9375 8.64605 9.9375C9.0936 9.9375 9.52282 10.1252 9.83929 10.4592C10.1558 10.7933 10.3335 11.2463 10.3335 11.7187Z" stroke="white" stroke-width="1.2" stroke-linecap="round" stroke-linejoin="round"/>
</svg>
