<svg width="27" height="27" viewBox="0 0 27 27" fill="none" xmlns="http://www.w3.org/2000/svg">
<rect x="0.625" width="26" height="27" rx="13" fill="#1D7E96"/>
<path d="M16.0115 16.0191C15.6981 16.3499 15.326 16.6123 14.9166 16.7913C14.5071 16.9704 14.0682 17.0625 13.625 17.0625C13.1818 17.0625 12.7429 16.9704 12.3334 16.7913C11.924 16.6123 11.5519 16.3499 11.2385 16.0191M20.375 13.5C20.375 14.4357 20.2004 15.3622 19.8612 16.2266C19.522 17.0911 19.0248 17.8765 18.398 18.5381C17.7712 19.1998 17.0271 19.7246 16.2081 20.0826C15.3892 20.4407 14.5114 20.625 13.625 20.625C12.7386 20.625 11.8608 20.4407 11.0419 20.0826C10.2229 19.7246 9.47882 19.1998 8.85203 18.5381C8.22523 17.8765 7.72803 17.0911 7.38881 16.2266C7.04959 15.3622 6.875 14.4357 6.875 13.5C6.875 11.6103 7.58616 9.79806 8.85203 8.46186C10.1179 7.12567 11.8348 6.375 13.625 6.375C15.4152 6.375 17.1321 7.12567 18.398 8.46186C19.6638 9.79806 20.375 11.6103 20.375 13.5ZM11.9375 11.7188C11.9375 12.0465 11.8115 12.3125 11.6562 12.3125C11.501 12.3125 11.375 12.0465 11.375 11.7188C11.375 11.391 11.501 11.125 11.6562 11.125C11.8115 11.125 11.9375 11.391 11.9375 11.7188ZM11.6562 11.7188H11.6623V11.7306H11.6562V11.7188ZM15.875 11.7188C15.875 12.0465 15.749 12.3125 15.5938 12.3125C15.4385 12.3125 15.3125 12.0465 15.3125 11.7188C15.3125 11.391 15.4385 11.125 15.5938 11.125C15.749 11.125 15.875 11.391 15.875 11.7188ZM15.5938 11.7188H15.5998V11.7306H15.5938V11.7188Z" stroke="white" stroke-width="1.2" stroke-linecap="round" stroke-linejoin="round"/>
</svg>
