<svg width="21" height="21" viewBox="0 0 21 21" fill="none" xmlns="http://www.w3.org/2000/svg">
<path d="M18.7501 12.65V16.9C18.7501 17.994 17.9631 18.936 16.8781 19.08C14.7911 19.357 12.6621 19.5 10.5001 19.5C8.33806 19.5 6.20906 19.357 4.12206 19.08C3.03706 18.936 2.25006 17.994 2.25006 16.9V12.65M18.7501 12.65C18.9875 12.4436 19.1775 12.1883 19.307 11.9016C19.4364 11.6149 19.5023 11.3036 19.5001 10.989V7.206C19.5001 6.125 18.7321 5.191 17.6631 5.031C16.5304 4.86142 15.392 4.73234 14.2501 4.644M18.7501 12.65C18.5561 12.815 18.3301 12.945 18.0771 13.03C15.6333 13.8408 13.0748 14.2528 10.5001 14.25C7.85206 14.25 5.30506 13.821 2.92306 13.03C2.67631 12.9479 2.44778 12.8189 2.25006 12.65M2.25006 12.65C2.0126 12.4436 1.82262 12.1883 1.69315 11.9016C1.56369 11.6149 1.49782 11.3036 1.50006 10.989V7.206C1.50006 6.125 2.26806 5.191 3.33706 5.031C4.46975 4.86142 5.60814 4.73233 6.75006 4.644M14.2501 4.644V3.75C14.2501 3.15326 14.013 2.58097 13.591 2.15901C13.1691 1.73705 12.5968 1.5 12.0001 1.5H9.00006C8.40332 1.5 7.83102 1.73705 7.40907 2.15901C6.98711 2.58097 6.75006 3.15326 6.75006 3.75V4.644M14.2501 4.644C11.7538 4.45108 9.24633 4.45108 6.75006 4.644M10.5001 11.25H10.5081V11.258H10.5001V11.25Z" stroke="#156578" stroke-width="1.5" stroke-linecap="round" stroke-linejoin="round"/>
</svg>
