<svg width="27" height="27" viewBox="0 0 27 27" fill="none" xmlns="http://www.w3.org/2000/svg">
<rect x="0.125" width="26" height="27" rx="13" fill="#1D7E96"/>
<path d="M15.9377 8.75C15.9377 9.53736 15.6414 10.2925 15.114 10.8492C14.5865 11.406 13.8711 11.7187 13.1252 11.7187C12.3793 11.7187 11.6639 11.406 11.1365 10.8492C10.609 10.2925 10.3127 9.53736 10.3127 8.75C10.3127 7.96264 10.609 7.20753 11.1365 6.65078C11.6639 6.09403 12.3793 5.78125 13.1252 5.78125C13.8711 5.78125 14.5865 6.09403 15.114 6.65078C15.6414 7.20753 15.9377 7.96264 15.9377 8.75ZM7.50098 19.9267C7.52508 18.369 8.12823 16.8837 9.18036 15.7911C10.2325 14.6985 11.6493 14.0862 13.1252 14.0862C14.6012 14.0862 16.018 14.6985 17.0701 15.7911C18.1222 16.8837 18.7254 18.369 18.7495 19.9267C16.985 20.7808 15.0663 21.2215 13.1252 21.2187C11.1182 21.2187 9.21323 20.7564 7.50098 19.9267Z" stroke="white" stroke-width="1.2" stroke-linecap="round" stroke-linejoin="round"/>
</svg>
