<svg width="27" height="27" viewBox="0 0 27 27" fill="none" xmlns="http://www.w3.org/2000/svg">
<rect x="0.375" width="26" height="27" rx="13" fill="#1D7E96"/>
<path d="M9.4375 6.375V8.15625M17.3125 6.375V8.15625M6.625 18.8438V9.9375C6.625 9.46508 6.80279 9.01202 7.11926 8.67797C7.43572 8.34392 7.86495 8.15625 8.3125 8.15625H18.4375C18.8851 8.15625 19.3143 8.34392 19.6307 8.67797C19.9472 9.01202 20.125 9.46508 20.125 9.9375V18.8438M6.625 18.8438C6.625 19.3162 6.80279 19.7692 7.11926 20.1033C7.43572 20.4373 7.86495 20.625 8.3125 20.625H18.4375C18.8851 20.625 19.3143 20.4373 19.6307 20.1033C19.9472 19.7692 20.125 19.3162 20.125 18.8438M6.625 18.8438V12.9063C6.625 12.4338 6.80279 11.9808 7.11926 11.6467C7.43572 11.3127 7.86495 11.125 8.3125 11.125H18.4375C18.8851 11.125 19.3143 11.3127 19.6307 11.6467C19.9472 11.9808 20.125 12.4338 20.125 12.9063V18.8438" stroke="white" stroke-width="1.2" stroke-linecap="round" stroke-linejoin="round"/>
</svg>
