<svg width="24" height="24" viewBox="0 0 24 24" fill="none" xmlns="http://www.w3.org/2000/svg">
<path fill-rule="evenodd" clip-rule="evenodd" d="M4.24501 21.8775L22.2115 12.8931C22.9485 12.5246 22.9484 11.4727 22.2114 11.1043L4.24479 2.12214C3.43624 1.71791 2.54891 2.50879 2.85783 3.35833L5.87599 11.6583C5.95627 11.879 5.95627 12.121 5.87599 12.3418L2.85796 20.6414C2.54902 21.4909 3.43645 22.2818 4.24501 21.8775ZM4.6963 4.02487L19.1485 11.25H7.32105C7.31005 11.215 7.29826 11.1803 7.28568 11.1457L4.6963 4.02487ZM7.32105 12.75C7.31005 12.785 7.29826 12.8198 7.28568 12.8544L4.6965 19.9746L19.1438 12.75H7.32105Z" fill="white"/>
</svg>
