<svg width="60" height="48" viewBox="0 0 60 48" fill="none" xmlns="http://www.w3.org/2000/svg">
<path d="M19.0626 41.6879C19.0626 42.8482 18.6016 43.961 17.7811 44.7815C16.9607 45.602 15.8479 46.0629 14.6876 46.0629C13.5272 46.0629 12.4144 45.602 11.594 44.7815C10.7735 43.961 10.3126 42.8482 10.3126 41.6879M19.0626 41.6879C19.0626 40.5276 18.6016 39.4148 17.7811 38.5943C16.9607 37.7739 15.8479 37.3129 14.6876 37.3129C13.5272 37.3129 12.4144 37.7739 11.594 38.5943C10.7735 39.4148 10.3126 40.5276 10.3126 41.6879M19.0626 41.6879H36.5626M10.3126 41.6879H4.8438C3.97356 41.6879 3.13896 41.3422 2.52361 40.7269C1.90826 40.1115 1.56255 39.2769 1.56255 38.4067V28.5629M36.5626 41.6879H43.1251M36.5626 41.6879V28.5629M1.56255 28.5629V6.29417C1.55792 5.4955 1.84973 4.7235 2.38152 4.1276C2.91331 3.5317 3.64725 3.15426 4.4413 3.06834C14.1627 2.05925 23.9624 2.05925 33.6838 3.06834C35.3317 3.2375 36.5626 4.6375 36.5626 6.29417V9.08834M1.56255 28.5629H36.5626M51.8751 41.6879C51.8751 42.8482 51.4141 43.961 50.5936 44.7815C49.7732 45.602 48.6604 46.0629 47.5001 46.0629C46.3397 46.0629 45.2269 45.602 44.4065 44.7815C43.586 43.961 43.1251 42.8482 43.1251 41.6879M51.8751 41.6879C51.8751 40.5276 51.4141 39.4148 50.5936 38.5943C49.7732 37.7739 48.6604 37.3129 47.5001 37.3129C46.3397 37.3129 45.2269 37.7739 44.4065 38.5943C43.586 39.4148 43.1251 40.5276 43.1251 41.6879M51.8751 41.6879H55.1563C56.9676 41.6879 58.4492 40.2179 58.3355 38.4096C57.7494 28.7777 54.5056 19.4966 48.9642 11.5967C48.4364 10.8567 47.7473 10.2463 46.9489 9.81176C46.1506 9.37721 45.2639 9.12984 44.3559 9.08834H36.5626M36.5626 9.08834V28.5629" stroke="#398EE8" stroke-width="3" stroke-linecap="round" stroke-linejoin="round"/>
</svg>
