<svg width="20" height="21" viewBox="0 0 20 21" fill="none" xmlns="http://www.w3.org/2000/svg">
<path d="M18.2501 12.7799V17.0299C18.2501 18.1239 17.4631 19.0659 16.3781 19.2099C14.2911 19.4869 12.1621 19.6299 10.0001 19.6299C7.83806 19.6299 5.70906 19.4869 3.62206 19.2099C2.53706 19.0659 1.75006 18.1239 1.75006 17.0299V12.7799M18.2501 12.7799C18.4875 12.5735 18.6775 12.3182 18.807 12.0315C18.9364 11.7448 19.0023 11.4335 19.0001 11.1189V7.33588C19.0001 6.25488 18.2321 5.32088 17.1631 5.16088C16.0304 4.9913 14.892 4.86222 13.7501 4.77388M18.2501 12.7799C18.0561 12.9449 17.8301 13.0749 17.5771 13.1599C15.1333 13.9707 12.5748 14.3827 10.0001 14.3799C7.35206 14.3799 4.80506 13.9509 2.42306 13.1599C2.17631 13.0778 1.94778 12.9488 1.75006 12.7799M1.75006 12.7799C1.5126 12.5735 1.32262 12.3182 1.19315 12.0315C1.06369 11.7448 0.997818 11.4335 1.00006 11.1189V7.33588C1.00006 6.25488 1.76806 5.32088 2.83706 5.16088C3.96975 4.9913 5.10814 4.86222 6.25006 4.77388M13.7501 4.77388V3.87988C13.7501 3.28315 13.513 2.71085 13.091 2.28889C12.6691 1.86694 12.0968 1.62988 11.5001 1.62988H8.50006C7.90332 1.62988 7.33102 1.86694 6.90907 2.28889C6.48711 2.71085 6.25006 3.28315 6.25006 3.87988V4.77388M13.7501 4.77388C11.2538 4.58096 8.74633 4.58096 6.25006 4.77388M10.0001 11.3799H10.0081V11.3879H10.0001V11.3799Z" stroke="white" stroke-width="1.5" stroke-linecap="round" stroke-linejoin="round"/>
</svg>
