<svg width="61" height="61" viewBox="0 0 61 61" fill="none" xmlns="http://www.w3.org/2000/svg">
<path d="M9.73286 25.112L14.0106 29.2709L19.6842 20.8706M26.8944 27.5347C27.0384 26.787 27.1113 26.0256 27.1113 25.2605C27.1113 22.0696 25.8438 19.0094 23.5875 16.7531C21.3312 14.4968 18.271 13.2293 15.0801 13.2293C11.8892 13.2293 8.829 14.4968 6.5727 16.7531C4.31641 19.0094 3.04883 22.0696 3.04883 25.2605C3.04883 26.8405 3.36003 28.405 3.96466 29.8647C4.56928 31.3244 5.4555 32.6507 6.5727 33.7679C7.68991 34.8851 9.01622 35.7713 10.4759 36.3759C11.9256 36.9764 13.4785 37.2875 15.0474 37.2917M26.8944 27.5347C26.7411 28.3311 26.5074 29.1118 26.1955 29.8647C25.5909 31.3244 24.7047 32.6507 23.5875 33.7679C22.4703 34.8851 21.1439 35.7713 19.6842 36.3759C18.2245 36.9806 16.66 37.2918 15.0801 37.2918C15.0692 37.2918 15.0583 37.2917 15.0474 37.2917M26.8944 27.5347L29.8707 25.0835C32.3003 23.0827 32.7728 19.6177 32.5073 16.4793C32.3115 14.199 32.7154 11.9071 33.6789 9.83109C34.6424 7.75506 36.1321 5.96706 38 4.64453C39.8679 3.32201 42.0492 2.51092 44.3274 2.29176C46.6056 2.0726 48.9015 2.45299 50.9873 3.39518L41.4323 12.9502C41.802 14.5488 42.6131 16.0115 43.7733 17.1717C44.9335 18.3319 46.3962 19.143 47.9948 19.5127L57.5498 9.95768C58.2965 11.6056 58.7107 13.4343 58.7107 15.3593C58.7108 17.1775 58.3333 18.9758 57.6019 20.6403C56.8706 22.3048 55.8014 23.7992 54.4621 25.0288C53.1228 26.2584 51.5427 27.1963 49.8219 27.7831C48.1011 28.3699 46.2771 28.5928 44.4657 28.4377C41.3273 28.1723 37.8623 28.6448 35.8615 31.0743L15.0015 56.4027C14.3435 57.2048 13.5248 57.8602 12.5982 58.3268C11.6715 58.7934 10.6574 59.0608 9.62122 59.1118C8.58499 59.1628 7.54956 58.9963 6.58158 58.6229C5.6136 58.2496 4.73452 57.6777 4.0009 56.9441C3.26729 56.2105 2.69541 55.3314 2.32207 54.3634C1.94873 53.3955 1.7822 52.36 1.8332 51.3238C1.88421 50.2876 2.15161 49.2735 2.6182 48.3469C3.08479 47.4202 3.74023 46.6015 4.54234 45.9435L15.0474 37.2917" stroke="#398EE8" stroke-width="3" stroke-linecap="round" stroke-linejoin="round"/>
</svg>
