<svg width="48" height="60" viewBox="0 0 48 60" fill="none" xmlns="http://www.w3.org/2000/svg">
<path d="M34.9375 40.9375V47.5M13.0625 27.8125H13.0858V27.8358H13.0625V27.8125ZM13.0625 34.375H13.0858V34.3983H13.0625V34.375ZM13.0625 40.9375H13.0858V40.9608H13.0625V40.9375ZM13.0625 47.5H13.0858V47.5233H13.0625V47.5ZM20.3483 27.8125H20.3688V27.8358H20.3483V27.8125ZM20.3483 34.375H20.3688V34.3983H20.3483V34.375ZM20.3483 40.9375H20.3688V40.9608H20.3483V40.9375ZM20.3483 47.5H20.3688V47.5233H20.3483V47.5ZM27.6517 27.8125H27.675V27.8358H27.6517V27.8125ZM27.6517 34.375H27.675V34.3983H27.6517V34.375ZM27.6517 40.9375H27.675V40.9608H27.6517V40.9375ZM27.6517 47.5H27.675V47.5233H27.6517V47.5ZM34.9375 27.8125H34.9608V27.8358H34.9375V27.8125ZM34.9375 34.375H34.9608V34.3983H34.9375V34.375ZM13.0625 12.5H34.9375V19.0625H13.0625V12.5ZM24 1.56251C18.4817 1.56251 13.0392 1.88334 7.68708 2.50167C4.47875 2.87501 2.125 5.64584 2.125 8.87459V51.875C2.125 53.6155 2.8164 55.2847 4.04711 56.5154C5.27782 57.7461 6.94702 58.4375 8.6875 58.4375H39.3125C41.053 58.4375 42.7222 57.7461 43.9529 56.5154C45.1836 55.2847 45.875 53.6155 45.875 51.875V8.87459C45.875 5.64292 43.5242 2.87501 40.3129 2.50167C34.8979 1.87461 29.4512 1.56103 24 1.56251Z" stroke="#156578" stroke-width="3" stroke-linecap="round" stroke-linejoin="round"/>
</svg>
