<svg width="60" height="60" viewBox="0 0 60 60" fill="none" xmlns="http://www.w3.org/2000/svg">
<path d="M28.3091 39.2458L45.3132 56.25C46.7716 57.6617 48.7263 58.4437 50.756 58.4272C52.7856 58.4107 54.7274 57.5971 56.1626 56.1619C57.5979 54.7267 58.4114 52.7849 58.4279 50.7552C58.4444 48.7256 57.6624 46.7708 56.2507 45.3125L39.1095 28.1713M28.3091 39.2458L35.5891 30.4083C36.5136 29.2883 37.7474 28.5825 39.1124 28.1742C40.7166 27.6958 42.5045 27.6258 44.1961 27.7658C46.4765 27.9616 48.7684 27.5578 50.8444 26.5943C52.9204 25.6307 54.7084 24.1411 56.031 22.2732C57.3535 20.4053 58.1646 18.224 58.3837 15.9457C58.6029 13.6675 58.2225 11.3716 57.2803 9.28583L47.7253 18.8438C46.1267 18.4741 44.664 17.663 43.5038 16.5028C42.3436 15.3425 41.5325 13.8799 41.1628 12.2813L50.7178 2.72625C48.632 1.78406 46.3361 1.40367 44.0579 1.62283C41.7797 1.84198 39.5984 2.65307 37.7305 3.9756C35.8625 5.29813 34.3729 7.08612 33.4094 9.16216C32.4459 11.2382 32.042 13.5301 32.2378 15.8104C32.5032 18.9488 32.0307 22.4138 29.6011 24.4146L29.3036 24.6625M28.3091 39.2458L14.732 55.7338C14.0739 56.5359 13.2553 57.1913 12.3286 57.6579C11.402 58.1245 10.3879 58.3919 9.35169 58.4429C8.31546 58.4939 7.28003 58.3274 6.31205 57.954C5.34407 57.5807 4.46498 57.0088 3.73137 56.2752C2.99776 55.5416 2.42588 54.6625 2.05254 53.6945C1.6792 52.7265 1.51267 51.6911 1.56367 50.6549C1.61467 49.6186 1.88208 48.6046 2.34867 47.6779C2.81526 46.7513 3.4707 45.9326 4.27281 45.2746L24.2141 28.8538L12.2353 16.875H8.12572L1.56322 5.9375L5.93822 1.5625L16.8757 8.125V12.2346L29.3007 24.6596L24.2111 28.8508M48.5945 48.5938L40.9382 40.9375M9.19614 50.7813H9.21947V50.8046H9.19614V50.7813Z" stroke="#398EE8" stroke-width="3" stroke-linecap="round" stroke-linejoin="round"/>
</svg>
