<svg width="21" height="22" viewBox="0 0 21 22" fill="none" xmlns="http://www.w3.org/2000/svg">
<path d="M5.71717 9.90679C5.47504 9.47111 5.09508 9.12816 4.63694 8.93178C4.17881 8.7354 3.66843 8.69671 3.18593 8.82177C2.70342 8.94684 2.27611 9.22859 1.97106 9.6228C1.666 10.017 1.50049 10.5013 1.50049 10.9998C1.50049 11.4982 1.666 11.9826 1.97106 12.3768C2.27611 12.771 2.70342 13.0527 3.18593 13.1778C3.66843 13.3029 4.17881 13.2642 4.63694 13.0678C5.09508 12.8714 5.47504 12.5285 5.71717 12.0928M5.71717 9.90679C5.89717 10.2308 6.00017 10.6028 6.00017 10.9998C6.00017 11.3968 5.89717 11.7698 5.71717 12.0928M5.71717 9.90679L15.2832 4.59279M5.71717 12.0928L15.2832 17.4068M15.2832 4.59279C15.4234 4.85693 15.6149 5.09046 15.8465 5.27972C16.0781 5.46899 16.345 5.61019 16.6318 5.69507C16.9186 5.77995 17.2194 5.80682 17.5166 5.77409C17.8139 5.74136 18.1017 5.6497 18.3631 5.50446C18.6245 5.35922 18.8544 5.16332 19.0392 4.92821C19.2241 4.6931 19.3602 4.4235 19.4396 4.13518C19.519 3.84685 19.5402 3.54559 19.5018 3.24899C19.4635 2.95239 19.3663 2.66642 19.2162 2.40779C18.9202 1.89814 18.4362 1.52493 17.868 1.36841C17.2998 1.21188 16.6929 1.28454 16.1777 1.57075C15.6625 1.85696 15.2802 2.33388 15.1129 2.89899C14.9457 3.4641 15.0068 4.07228 15.2832 4.59279ZM15.2832 17.4068C15.1396 17.6652 15.0484 17.9493 15.0147 18.2429C14.9809 18.5366 15.0054 18.834 15.0866 19.1182C15.1678 19.4024 15.3042 19.6678 15.4879 19.8993C15.6717 20.1307 15.8993 20.3238 16.1577 20.4673C16.416 20.6108 16.7002 20.7021 16.9938 20.7358C17.2874 20.7695 17.5848 20.7451 17.869 20.6639C18.1532 20.5827 18.4186 20.4463 18.6501 20.2625C18.8816 20.0787 19.0746 19.8512 19.2182 19.5928C19.5081 19.071 19.5788 18.4554 19.4148 17.8814C19.2508 17.3075 18.8655 16.8222 18.3437 16.5323C17.8219 16.2424 17.2063 16.1717 16.6323 16.3357C16.0584 16.4997 15.5731 16.885 15.2832 17.4068Z" stroke="white" stroke-width="1.5" stroke-linecap="round" stroke-linejoin="round"/>
</svg>
