<svg width="41" height="39" viewBox="0 0 41 39" fill="none" xmlns="http://www.w3.org/2000/svg">
<path d="M16.0812 10.538C18.5208 8.488 22.4792 8.488 24.9187 10.538C27.3604 12.588 27.3604 15.912 24.9187 17.962C24.4958 18.32 24.0229 18.614 23.5229 18.846C21.9708 19.568 20.5021 20.844 20.5021 22.5V24M39.25 19.5C39.25 21.8638 38.765 24.2044 37.8227 26.3883C36.8805 28.5722 35.4993 30.5565 33.7582 32.2279C32.0172 33.8994 29.9502 35.2252 27.6753 36.1298C25.4005 37.0344 22.9623 37.5 20.5 37.5C18.0377 37.5 15.5995 37.0344 13.3247 36.1298C11.0498 35.2252 8.98285 33.8994 7.24175 32.2279C5.50065 30.5565 4.11953 28.5722 3.17726 26.3883C2.23498 24.2044 1.75 21.8638 1.75 19.5C1.75 14.7261 3.72544 10.1477 7.24175 6.77208C10.7581 3.39642 15.5272 1.5 20.5 1.5C25.4728 1.5 30.2419 3.39642 33.7582 6.77208C37.2746 10.1477 39.25 14.7261 39.25 19.5ZM20.5 30H20.5167V30.016H20.5V30Z" stroke="white" stroke-width="3" stroke-linecap="round" stroke-linejoin="round"/>
</svg>
