<svg width="27" height="27" viewBox="0 0 27 27" fill="none" xmlns="http://www.w3.org/2000/svg">
<rect x="0.875" width="26" height="27" rx="13" fill="#1D7E96"/>
<path d="M7.6875 6.375V15.2813C7.6875 15.7537 7.86529 16.2067 8.18176 16.5408C8.49823 16.8748 8.92745 17.0625 9.375 17.0625H11.0625M7.6875 6.375H6.5625M7.6875 6.375H20.0625M11.0625 17.0625H16.6875M11.0625 17.0625L10.3125 19.4375M20.0625 6.375H21.1875M20.0625 6.375V15.2813C20.0625 15.7537 19.8847 16.2067 19.5682 16.5408C19.2518 16.8748 18.8226 17.0625 18.375 17.0625H16.6875M16.6875 17.0625L17.4375 19.4375M10.3125 19.4375H17.4375M10.3125 19.4375L9.9375 20.625M17.4375 19.4375L17.8125 20.625M10.5 13.5L12.75 11.125L14.361 12.8255C15.1179 11.6786 16.1041 10.7211 17.25 10.0206" stroke="white" stroke-width="1.2" stroke-linecap="round" stroke-linejoin="round"/>
</svg>
