<svg width="33" height="41" viewBox="0 0 33 41" fill="none" xmlns="http://www.w3.org/2000/svg">
<path d="M18.3804 20.3673L14.8204 24.9066L12.9397 22.5088C12.9054 22.4651 12.8617 22.4297 12.8117 22.4053C12.7618 22.381 12.707 22.3684 12.6514 22.3684C12.5958 22.3684 12.541 22.381 12.4911 22.4053C12.4411 22.4297 12.3974 22.4651 12.3631 22.5088L7.79637 28.3294C7.75412 28.3833 7.72791 28.4481 7.72072 28.5162C7.71354 28.5844 7.72568 28.6532 7.75575 28.7147C7.78582 28.7763 7.83261 28.8282 7.89078 28.8644C7.94894 28.9007 8.01613 28.9198 8.08465 28.9196H24.9194C25.226 28.9196 25.3953 28.5673 25.2076 28.3294L18.9616 20.3673C18.9269 20.3235 18.8827 20.2881 18.8324 20.2637C18.782 20.2394 18.7269 20.2268 18.671 20.2268C18.6151 20.2268 18.5599 20.2394 18.5096 20.2637C18.4593 20.2881 18.4151 20.3235 18.3804 20.3673ZM9.54436 17.2969C9.54436 17.7823 9.7372 18.2479 10.0805 18.5911C10.4237 18.9344 10.8893 19.1272 11.3747 19.1272C11.8602 19.1272 12.3257 18.9344 12.669 18.5911C13.0122 18.2479 13.2051 17.7823 13.2051 17.2969C13.2051 16.8114 13.0122 16.3459 12.669 16.0026C12.3257 15.6594 11.8602 15.4665 11.3747 15.4665C10.8893 15.4665 10.4237 15.6594 10.0805 16.0026C9.7372 16.3459 9.54436 16.8114 9.54436 17.2969ZM32.1767 10.2775L22.3294 0.430134C22.0549 0.15558 21.6842 0 21.2953 0H1.85686C1.04693 0 0.392578 0.654353 0.392578 1.46429V39.5357C0.392578 40.3456 1.04693 41 1.85686 41H31.1426C31.9525 41 32.6069 40.3456 32.6069 39.5357V11.3162C32.6069 10.9272 32.4513 10.552 32.1767 10.2775ZM30.2299 11.9888H20.618V2.37701L30.2299 11.9888ZM30.3122 38.7054H2.68722V2.29464H18.5064V12.1786C18.5064 12.6883 18.7089 13.1771 19.0693 13.5375C19.4297 13.898 19.9186 14.1004 20.4283 14.1004H30.3122V38.7054Z" fill="#707070"/>
</svg>
