<svg width="41" height="29" viewBox="0 0 41 29" fill="none" xmlns="http://www.w3.org/2000/svg">
<path d="M27.8438 11.5625L37.0871 2.31917C37.2925 2.11402 37.5541 1.97434 37.8388 1.91778C38.1236 1.86121 38.4187 1.89029 38.6869 2.00135C38.9551 2.11241 39.1844 2.30047 39.3458 2.54177C39.5072 2.78306 39.5935 3.06678 39.5938 3.35708V25.6429C39.5935 25.9332 39.5072 26.2169 39.3458 26.4582C39.1844 26.6995 38.9551 26.8876 38.6869 26.9986C38.4187 27.1097 38.1236 27.1388 37.8388 27.0822C37.5541 27.0257 37.2925 26.886 37.0871 26.6808L27.8438 17.4375M5.8125 27.7188H23.4375C24.6061 27.7188 25.7269 27.2545 26.5532 26.4282C27.3795 25.6019 27.8438 24.4811 27.8438 23.3125V5.6875C27.8438 4.51889 27.3795 3.39814 26.5532 2.57181C25.7269 1.74548 24.6061 1.28125 23.4375 1.28125H5.8125C4.64389 1.28125 3.52314 1.74548 2.69681 2.57181C1.87048 3.39814 1.40625 4.51889 1.40625 5.6875V23.3125C1.40625 24.4811 1.87048 25.6019 2.69681 26.4282C3.52314 27.2545 4.64389 27.7188 5.8125 27.7188Z" stroke="#707070" stroke-width="2.5" stroke-linecap="round" stroke-linejoin="round"/>
</svg>
