<svg width="24" height="24" viewBox="0 0 24 24" fill="none" xmlns="http://www.w3.org/2000/svg">
<path d="M12.0073 3C14.4141 3.00106 16.67 3.93713 18.3687 5.63672C20.0668 7.33695 21.0014 9.59392 21.0005 11.9971C20.9985 16.9533 16.963 20.9872 12.0073 20.9873H12.0034C10.4984 20.9868 9.01932 20.6088 7.70654 19.8926L7.53174 19.7979L7.33936 19.8477L3.14502 20.9473L4.26318 16.8662L4.31885 16.665L4.21436 16.4844C3.42747 15.1218 3.01271 13.5743 3.01318 11.9893C3.01573 7.18778 6.80227 3.25285 11.5454 3.01172L12.0073 3Z" fill="white" stroke="white"/>
<path fill-rule="evenodd" clip-rule="evenodd" d="M2.43386 21.9015C2.36786 21.9015 2.30386 21.8755 2.25636 21.8275C2.19386 21.764 2.16936 21.6715 2.19286 21.586L3.51236 16.768C2.69436 15.315 2.26286 13.665 2.26386 11.99C2.26586 6.619 6.63636 2.25 12.0069 2.25C14.6119 2.251 17.0594 3.2655 18.8989 5.1065C20.7384 6.948 21.7509 9.395 21.7499 11.997C21.7479 17.3675 17.3769 21.737 12.0069 21.737C10.4124 21.7365 8.83486 21.343 7.43486 20.5985L2.49736 21.893C2.47636 21.899 2.45536 21.9015 2.43386 21.9015Z" fill="white"/>
<path fill-rule="evenodd" clip-rule="evenodd" d="M12.0068 2.5C14.5463 2.501 16.9293 3.4895 18.7218 5.283C20.5138 7.077 21.5008 9.461 21.4998 11.997C21.4978 17.2295 17.2388 21.487 12.0068 21.487H12.0028C10.4143 21.4865 8.8528 21.088 7.4663 20.3315L2.4338 21.6515L3.7808 16.734C2.9498 15.295 2.5128 13.662 2.5133 11.9895C2.5158 6.757 6.7738 2.5 12.0068 2.5ZM12.0068 2C6.4988 2 2.0158 6.481 2.0133 11.9895C2.0128 13.673 2.4378 15.332 3.2438 16.8005L1.9513 21.52C1.9043 21.6925 1.9523 21.8765 2.0783 22.0035C2.1733 22.0995 2.3018 22.152 2.4338 22.152C2.4763 22.152 2.5188 22.1465 2.5608 22.1355L7.4043 20.8655C8.8183 21.5995 10.4033 21.987 12.0028 21.9875C17.5148 21.9875 21.9978 17.506 22.0003 11.9975C22.0013 9.328 20.9628 6.818 19.0763 4.93C17.1888 3.0415 14.6783 2.001 12.0068 2Z" fill="#CFD8DC"/>
<path fill-rule="evenodd" clip-rule="evenodd" d="M17.5882 6.41554C16.0982 4.92454 14.1177 4.10304 12.0097 4.10254C7.65771 4.10254 4.11821 7.64054 4.11621 11.9895C4.11571 13.48 4.53271 14.931 5.32271 16.1875L5.51071 16.486L4.71321 19.3965L7.69971 18.6135L7.98821 18.7845C9.19921 19.5035 10.5882 19.8835 12.0042 19.884H12.0072C16.3562 19.884 19.8957 16.3455 19.8972 11.996C19.8977 9.88854 19.0782 7.90654 17.5882 6.41554Z" fill="#40C351"/>
<path fill-rule="evenodd" clip-rule="evenodd" d="M9.63412 8.02293C9.45662 7.62793 9.26962 7.61993 9.10012 7.61293C8.96162 7.60693 8.80362 7.60743 8.64562 7.60743C8.48762 7.60743 8.23062 7.66693 8.01312 7.90443C7.79562 8.14193 7.18262 8.71543 7.18262 9.88243C7.18262 11.0494 8.03262 12.1774 8.15112 12.3354C8.26962 12.4934 9.79212 14.9649 12.2031 15.9159C14.2066 16.7059 14.6146 16.5489 15.0496 16.5094C15.4846 16.4699 16.4531 15.9359 16.6506 15.3819C16.8481 14.8279 16.8481 14.3534 16.7891 14.2544C16.7296 14.1554 16.5716 14.0964 16.3346 13.9774C16.0976 13.8584 14.9311 13.2849 14.7136 13.2059C14.4961 13.1269 14.3381 13.0874 14.1796 13.3249C14.0216 13.5619 13.5671 14.0964 13.4286 14.2544C13.2901 14.4129 13.1516 14.4329 12.9146 14.3139C12.6776 14.1949 11.9136 13.9449 11.0071 13.1369C10.3021 12.5084 9.82612 11.7319 9.68762 11.4944C9.54912 11.2574 9.67262 11.1289 9.79162 11.0104C9.89812 10.9039 10.0286 10.7334 10.1476 10.5949C10.2661 10.4564 10.3056 10.3574 10.3846 10.1994C10.4636 10.0409 10.4241 9.90243 10.3646 9.78393C10.3061 9.66493 9.84512 8.49193 9.63412 8.02293Z" fill="white"/>
</svg>
