<svg width="42" height="43" viewBox="0 0 42 43" fill="none" xmlns="http://www.w3.org/2000/svg">
<path d="M21.3917 34.7961C19.8688 34.7961 18.4798 34.5301 17.225 33.9983C16.9715 33.8909 16.7235 33.7726 16.4809 33.6435C15.0594 32.8531 13.9396 31.7774 13.1209 30.4163C12.3026 29.0332 11.8932 27.4744 11.8932 25.7401V12.0798C11.8932 11.7673 12.1407 11.514 12.4459 11.514H16.2191C16.5243 11.514 16.7717 11.7673 16.7717 12.0798V25.4437C16.7717 26.3658 16.9765 27.2 17.3855 27.9464C17.7949 28.6709 18.3441 29.2527 19.0332 29.6918C19.3187 29.8681 19.6163 30.009 19.926 30.1145C20.3876 30.2718 20.8762 30.3504 21.3917 30.3504C22.275 30.3504 23.0717 30.1308 23.7825 29.6918C24.5149 29.2527 25.0858 28.6709 25.4948 27.9464C25.9258 27.2 26.1409 26.3658 26.1409 25.4437V19.8026V19.2934C26.1409 19.2622 26.1162 19.2368 26.0857 19.2368H25.7532H24.7954C24.5745 19.2368 24.4429 18.9845 24.5658 18.7965L28.356 13.0017C28.4654 12.8344 28.7057 12.8344 28.8151 13.0017L29.3232 13.7785L32.6053 18.7965C32.7282 18.9845 32.5966 19.2368 32.3757 19.2368H30.9131C30.8826 19.2368 30.8578 19.2622 30.8578 19.2934V25.7401C30.8578 27.4744 30.4488 29.0332 29.6302 30.4163C28.8118 31.7774 27.681 32.8531 26.2378 33.6435C24.8163 34.4118 23.2009 34.7961 21.3917 34.7961Z" fill="#156578"/>
<path d="M22.4969 35.3618C20.6664 35.3618 19.0294 34.9776 17.5862 34.2093C17.4635 34.1411 17.3432 34.0708 17.225 33.9983C15.9737 33.2312 14.9742 32.2257 14.2262 30.982C13.4078 29.599 12.9985 28.0402 12.9985 26.3059V12.6455C12.9985 12.3331 13.2459 12.0798 13.5511 12.0798H17.3243C17.6295 12.0798 17.877 12.3331 17.877 12.6455V26.0095C17.877 26.9316 18.0818 27.7658 18.4908 28.5122C18.8572 29.1606 19.3356 29.6947 19.926 30.1145C19.9953 30.1638 20.0661 30.2115 20.1385 30.2576C20.8493 30.6966 21.6356 30.9162 22.4969 30.9162C23.3802 30.9162 24.177 30.6966 24.8877 30.2576C25.6201 29.8185 26.191 29.2367 26.6 28.5122C27.031 27.7658 27.2462 26.9316 27.2462 26.0095V19.8592C27.2462 19.828 27.2214 19.8026 27.1909 19.8026H26.1409H25.9007C25.6797 19.8026 25.5482 19.5503 25.6711 19.3623L25.7532 19.2368L29.3232 13.7785L29.4612 13.5675C29.5707 13.4002 29.811 13.4002 29.9204 13.5675L33.7105 19.3623C33.8335 19.5503 33.7019 19.8026 33.4809 19.8026H32.0184C31.9878 19.8026 31.9631 19.828 31.9631 19.8592V26.3059C31.9631 28.0402 31.5541 29.599 30.7354 30.982C29.9171 32.3432 28.7863 33.4189 27.3431 34.2093C25.9216 34.9776 24.3062 35.3618 22.4969 35.3618Z" fill="white"/>
<path fill-rule="evenodd" clip-rule="evenodd" d="M0 21.5C0 9.62588 9.40202 0 21 0C32.598 0 42 9.62588 42 21.5V42C42 42.5523 41.5523 43 41 43H21C13.8121 43 7.46769 39.3028 3.68207 33.6645C1.35942 30.2051 0 26.0151 0 21.5ZM17.225 33.9983C16.9715 33.8909 16.7235 33.7726 16.4809 33.6435C15.0594 32.8531 13.9396 31.7774 13.1209 30.4163C12.3026 29.0332 11.8932 27.4744 11.8932 25.7401V12.0798C11.8932 11.7673 12.1407 11.514 12.4459 11.514H16.2191C16.5243 11.514 16.7717 11.7673 16.7717 12.0798H17.3243C17.6295 12.0798 17.877 12.3331 17.877 12.6455V26.0095C17.877 26.9316 18.0818 27.7658 18.4908 28.5122C18.8572 29.1606 19.3356 29.6947 19.926 30.1145C20.3876 30.2718 20.8762 30.3504 21.3917 30.3504C22.275 30.3504 23.0717 30.1308 23.7825 29.6918C24.5149 29.2527 25.0858 28.6709 25.4948 27.9464C25.9258 27.2 26.1409 26.3658 26.1409 25.4437V19.8026H25.9007C25.6797 19.8026 25.5482 19.5503 25.6711 19.3623L25.7532 19.2368H24.7954C24.5745 19.2368 24.4429 18.9845 24.5658 18.7965L28.356 13.0017C28.4654 12.8344 28.7057 12.8344 28.8151 13.0017L29.3232 13.7785L29.4612 13.5675C29.5707 13.4002 29.811 13.4002 29.9204 13.5675L33.7105 19.3623C33.8335 19.5503 33.7019 19.8026 33.4809 19.8026H32.0184C31.9878 19.8026 31.9631 19.828 31.9631 19.8592V26.3059C31.9631 28.0402 31.5541 29.599 30.7354 30.982C29.9171 32.3432 28.7863 33.4189 27.3431 34.2093C25.9216 34.9776 24.3062 35.3618 22.4969 35.3618C20.6664 35.3618 19.0294 34.9776 17.5862 34.2093C17.4635 34.1411 17.3432 34.0708 17.225 33.9983Z" fill="#28BFB6"/>
</svg>
