<svg width="151" height="28" viewBox="0 0 151 28" fill="none" xmlns="http://www.w3.org/2000/svg">
<path d="M5.98 21.03C5.92477 21.03 5.88 20.9852 5.88 20.93V3.15H0.1C0.0447715 3.15 0 3.10523 0 3.05V0.129999C0 0.0747706 0.0447715 0.0299993 0.1 0.0299993H15.08C15.1352 0.0299993 15.18 0.0747708 15.18 0.129999V3.05C15.18 3.10523 15.1352 3.15 15.08 3.15H9.12V20.93C9.12 20.9852 9.07522 21.03 9.02 21.03H5.98ZM16.6081 21.03V7.27378C16.6081 6.17164 17.4997 5.27722 18.6018 5.27379L26.2381 5.25V8.25C26.2381 8.25 24.058 8.25 23.7781 8.25C23.2381 8.25 22.718 8.36001 22.2181 8.58C21.7381 8.78001 21.308 9.06999 20.9281 9.45C20.5681 9.81 20.278 10.24 20.0581 10.74C19.838 11.22 19.7281 11.75 19.7281 12.33V21.03H16.6081ZM34.0938 21.33C32.7939 21.33 31.6038 20.97 30.5238 20.25C29.4639 19.53 28.6138 18.55 27.9738 17.31C27.3338 16.07 27.0138 14.67 27.0138 13.11C27.0138 11.53 27.3338 10.13 27.9738 8.91C28.6338 7.67001 29.5137 6.69999 30.6138 6C31.7337 5.30001 32.9838 4.95 34.3638 4.95C35.1837 4.95 35.9337 5.07 36.6138 5.31C37.2939 5.55 37.8837 5.88999 38.3838 6.33C38.9037 6.75 39.3237 7.23999 39.6438 7.8C39.9837 8.36001 40.1937 8.96001 40.2738 9.6L39.5838 9.36V5.38C39.5838 5.32477 39.6286 5.28 39.6838 5.28H42.6038C42.659 5.28 42.7038 5.32477 42.7038 5.38V20.93C42.7038 20.9852 42.659 21.03 42.6038 21.03H39.6838C39.6286 21.03 39.5838 20.9852 39.5838 20.93V17.28L40.3038 17.07C40.1838 17.61 39.9339 18.14 39.5538 18.66C39.1938 19.16 38.7237 19.61 38.1438 20.01C37.5837 20.41 36.9537 20.73 36.2538 20.97C35.5737 21.21 34.8537 21.33 34.0938 21.33ZM34.9038 18.48C35.8437 18.48 36.6738 18.25 37.3938 17.79C38.1138 17.33 38.6739 16.7 39.0738 15.9C39.4938 15.08 39.7038 14.15 39.7038 13.11C39.7038 12.09 39.4938 11.18 39.0738 10.38C38.6739 9.57999 38.1138 8.94999 37.3938 8.49C36.6738 8.03001 35.8437 7.8 34.9038 7.8C33.9837 7.8 33.1638 8.03001 32.4438 8.49C31.7439 8.94999 31.1838 9.57999 30.7638 10.38C30.3639 11.18 30.1638 12.09 30.1638 13.11C30.1638 14.15 30.3639 15.08 30.7638 15.9C31.1838 16.7 31.7439 17.33 32.4438 17.79C33.1638 18.25 33.9837 18.48 34.9038 18.48ZM47.0581 21.03C47.0029 21.03 46.9581 20.9852 46.9581 20.93V5.38C46.9581 5.32477 47.0029 5.28 47.0581 5.28H49.9781C50.0333 5.28 50.0781 5.32477 50.0781 5.38V8.64L49.5081 9C49.6683 8.48001 49.9182 7.98 50.2581 7.5C50.6181 7.02 51.0483 6.6 51.5481 6.24C52.0683 5.85999 52.6182 5.55999 53.1981 5.34C53.7981 5.12001 54.4083 5.01 55.0281 5.01C55.9281 5.01 56.7183 5.16 57.3981 5.46C58.0782 5.76 58.6383 6.21 59.0781 6.81C59.5182 7.41 59.8383 8.16 60.0381 9.06L59.5581 8.94L59.7681 8.43C59.9883 7.97001 60.2883 7.53999 60.6681 7.14C61.0683 6.72 61.5183 6.35001 62.0181 6.03C62.5182 5.70999 63.0483 5.46 63.6081 5.28C64.1682 5.1 64.7181 5.01 65.2581 5.01C66.4383 5.01 67.4082 5.25 68.1681 5.73C68.9481 6.21 69.5283 6.93999 69.9081 7.92C70.3083 8.90001 70.5081 10.12 70.5081 11.58V20.93C70.5081 20.9852 70.4633 21.03 70.4081 21.03H67.4881C67.4329 21.03 67.3881 20.9852 67.3881 20.93V11.76C67.3881 10.86 67.2681 10.13 67.0281 9.57C66.8082 8.99001 66.4683 8.55999 66.0081 8.28C65.5482 8.00001 64.9581 7.86 64.2381 7.86C63.6783 7.86 63.1482 7.95999 62.6481 8.16C62.1681 8.34 61.7481 8.60001 61.3881 8.94C61.0281 9.27999 60.7482 9.68001 60.5481 10.14C60.3483 10.58 60.2481 11.07 60.2481 11.61V20.93C60.2481 20.9852 60.2033 21.03 60.1481 21.03H57.2281C57.1729 21.03 57.1281 20.9852 57.1281 20.93V11.7C57.1281 10.88 57.0081 10.19 56.7681 9.63C56.5281 9.05001 56.1783 8.61 55.7181 8.31C55.2582 8.01 54.6981 7.86 54.0381 7.86C53.4783 7.86 52.9581 7.95999 52.4781 8.16C51.9981 8.34 51.5781 8.60001 51.2181 8.94C50.8581 9.26001 50.5782 9.65001 50.3781 10.11C50.1783 10.55 50.0781 11.03 50.0781 11.55V20.93C50.0781 20.9852 50.0333 21.03 49.9781 21.03H47.0581ZM74.7451 27.63C74.6899 27.63 74.6451 27.5852 74.6451 27.53V7.01C74.6451 5.90543 75.5395 5.01 76.6441 5.01C78.8897 5.01 82.2967 5.01 82.8651 5.01C84.285 5.01 85.545 5.36001 86.6451 6.06C87.7452 6.75999 88.6152 7.71999 89.2551 8.94C89.895 10.16 90.2151 11.56 90.2151 13.14C90.2151 14.7 89.895 16.1 89.2551 17.34C88.635 18.56 87.7752 19.53 86.6751 20.25C85.575 20.95 84.3351 21.3 82.9551 21.3C82.035 21.3 81.1452 21.12 80.2851 20.76C79.425 20.38 78.6951 19.9 78.0951 19.32C77.4951 18.74 77.1252 18.14 76.9851 17.52L77.7651 17.1V27.53C77.7651 27.5852 77.7204 27.63 77.6651 27.63H74.7451ZM82.4451 18.45C83.3652 18.45 84.1851 18.22 84.9051 17.76C85.6251 17.3 86.1951 16.67 86.6151 15.87C87.0351 15.07 87.2451 14.16 87.2451 13.14C87.2451 12.12 87.0351 11.22 86.6151 10.44C86.2152 9.63999 85.6551 9.00999 84.9351 8.55C84.2151 8.09001 83.385 7.86 82.4451 7.86C81.5052 7.86 80.6751 8.09001 79.9551 8.55C79.2351 8.99001 78.6651 9.60999 78.2451 10.41C77.8251 11.21 77.6151 12.12 77.6151 13.14C77.6151 14.16 77.8251 15.07 78.2451 15.87C78.6651 16.67 79.2351 17.3 79.9551 17.76C80.6751 18.22 81.5052 18.45 82.4451 18.45ZM100.651 21.33C99.111 21.33 97.731 20.98 96.5109 20.28C95.3109 19.56 94.3608 18.59 93.6609 17.37C92.961 16.13 92.6109 14.72 92.6109 13.14C92.6109 11.56 92.961 10.16 93.6609 8.94C94.3608 7.70001 95.3109 6.72999 96.5109 6.03C97.731 5.31 99.111 4.95 100.651 4.95C102.171 4.95 103.531 5.31 104.731 6.03C105.951 6.72999 106.911 7.70001 107.611 8.94C108.311 10.16 108.661 11.56 108.661 13.14C108.661 14.72 108.311 16.13 107.611 17.37C106.911 18.59 105.951 19.56 104.731 20.28C103.531 20.98 102.171 21.33 100.651 21.33ZM100.651 18.51C101.591 18.51 102.431 18.28 103.171 17.82C103.911 17.34 104.491 16.7 104.911 15.9C105.331 15.08 105.531 14.16 105.511 13.14C105.531 12.1 105.331 11.18 104.911 10.38C104.491 9.56001 103.911 8.91999 103.171 8.46C102.431 8.00001 101.591 7.77 100.651 7.77C99.711 7.77 98.8608 8.01 98.1009 8.49C97.3608 8.94999 96.7809 9.59001 96.3609 10.41C95.9409 11.21 95.7408 12.12 95.7609 13.14C95.7408 14.16 95.9409 15.08 96.3609 15.9C96.7809 16.7 97.3608 17.34 98.1009 17.82C98.8608 18.28 99.711 18.51 100.651 18.51ZM121.238 21.21C119.538 21.21 118.018 20.86 116.678 20.16C115.358 19.44 114.318 18.46 113.558 17.22C112.798 15.96 112.418 14.54 112.418 12.96V0.1C112.418 0.0447717 112.463 0 112.518 0H116.848C116.903 0 116.948 0.0447715 116.948 0.1V12.69C116.948 13.53 117.138 14.29 117.518 14.97C117.898 15.63 118.408 16.16 119.048 16.56C119.708 16.96 120.438 17.16 121.238 17.16C122.058 17.16 122.798 16.96 123.458 16.56C124.138 16.16 124.668 15.63 125.048 14.97C125.448 14.29 125.648 13.53 125.648 12.69V0.100001C125.648 0.0447722 125.693 0 125.748 0H129.928C129.983 0 130.028 0.0447715 130.028 0.1V12.96C130.028 14.54 129.648 15.96 128.888 17.22C128.128 18.46 127.078 19.44 125.738 20.16C124.418 20.86 122.918 21.21 121.238 21.21ZM135.403 21.03C135.348 21.03 135.303 20.9852 135.303 20.93V0.13C135.303 0.0747714 135.348 0.0299993 135.403 0.0299993H144.213C145.453 0.0299993 146.573 0.33 147.573 0.930001C148.593 1.51 149.393 2.31 149.973 3.33C150.573 4.35 150.873 5.49999 150.873 6.78C150.873 8.07999 150.573 9.24999 149.973 10.29C149.393 11.33 148.593 12.16 147.573 12.78C146.573 13.38 145.453 13.68 144.213 13.68H139.803V20.93C139.803 20.9852 139.758 21.03 139.703 21.03H135.403ZM139.743 9.53C139.743 9.58523 139.788 9.63 139.843 9.63H143.703C144.183 9.63 144.613 9.51 144.993 9.27C145.373 9.00999 145.673 8.67 145.893 8.25C146.133 7.83 146.253 7.35 146.253 6.81C146.253 6.27 146.133 5.79999 145.893 5.4C145.673 4.98 145.373 4.65999 144.993 4.44C144.613 4.2 144.183 4.08 143.703 4.08H139.843C139.788 4.08 139.743 4.12477 139.743 4.18V9.53Z" fill="#A2A2A2"/>
</svg>
