<svg width="21" height="22" viewBox="0 0 21 22" fill="none" xmlns="http://www.w3.org/2000/svg">
<circle cx="10.5" cy="11" r="10.5" fill="#4BEA9B"/>
<path d="M11.8738 6.77273H13.1863V12.9602C13.1863 13.5199 13.0755 13.9986 12.8539 14.3963C12.6352 14.794 12.3269 15.098 11.9292 15.3082C11.5315 15.5156 11.0656 15.6193 10.5315 15.6193C10.04 15.6193 9.59823 15.5298 9.20619 15.3509C8.81698 15.1719 8.50874 14.9119 8.28147 14.571C8.05704 14.2273 7.94482 13.8097 7.94482 13.3182H9.25306C9.25306 13.5597 9.30846 13.7685 9.41926 13.9446C9.53289 14.1207 9.68772 14.2585 9.88374 14.358C10.0826 14.4545 10.3099 14.5028 10.5656 14.5028C10.844 14.5028 11.0798 14.4446 11.2729 14.3281C11.469 14.2088 11.6181 14.0341 11.7204 13.804C11.8227 13.5739 11.8738 13.2926 11.8738 12.9602V6.77273Z" fill="black"/>
</svg>
