<svg width="21" height="22" viewBox="0 0 21 22" fill="none" xmlns="http://www.w3.org/2000/svg">
<circle cx="10.5" cy="11" r="10.5" fill="#FFC66B"/>
<path d="M7.45441 15.5V6.77273H10.5652C11.2442 6.77273 11.8067 6.89631 12.2527 7.14347C12.6987 7.39062 13.0325 7.72869 13.2541 8.15767C13.4757 8.58381 13.5865 9.06392 13.5865 9.59801C13.5865 10.1349 13.4743 10.6179 13.2499 11.0469C13.0283 11.473 12.693 11.8111 12.2442 12.0611C11.7982 12.3082 11.2371 12.4318 10.5609 12.4318H8.42174V11.3153H10.4416C10.8706 11.3153 11.2186 11.2415 11.4857 11.0938C11.7527 10.9432 11.9487 10.7386 12.0737 10.4801C12.1987 10.2216 12.2612 9.92756 12.2612 9.59801C12.2612 9.26847 12.1987 8.97585 12.0737 8.72017C11.9487 8.46449 11.7513 8.2642 11.4814 8.11932C11.2144 7.97443 10.8621 7.90199 10.4246 7.90199H8.77117V15.5H7.45441Z" fill="black"/>
</svg>
